<?xml version="1.0" encoding="UTF-8"?>
<!DOCTYPE svg PUBLIC "-//W3C//DTD SVG 1.1//EN" "http://www.w3.org/Graphics/SVG/1.1/DTD/svg11.dtd">
<svg xmlns="http://www.w3.org/2000/svg" version="1.1" width="1280px" height="720px" style="shape-rendering:geometricPrecision; text-rendering:geometricPrecision; image-rendering:optimizeQuality; fill-rule:evenodd; clip-rule:evenodd" xmlns:xlink="http://www.w3.org/1999/xlink">
<g><path style="opacity:0.315" fill="#a7a8aa" d="M 745.5,333.5 C 740.405,333.238 735.405,332.572 730.5,331.5C 732.437,330.069 734.27,328.402 736,326.5C 738.075,321.077 739.408,315.41 740,309.5C 742.648,304.352 746.481,300.352 751.5,297.5C 749.223,294.601 746.723,291.934 744,289.5C 743.022,286.331 743.522,283.497 745.5,281C 742.574,280.313 741.241,278.48 741.5,275.5C 738.873,275.707 737.207,274.54 736.5,272C 737.919,268.496 739.585,265.163 741.5,262C 740.663,260.989 740.33,259.822 740.5,258.5C 735.167,258.5 729.833,258.5 724.5,258.5C 724.728,262.39 724.394,266.224 723.5,270C 721.672,271.663 720.005,273.496 718.5,275.5C 716.15,280.709 713.984,286.042 712,291.5C 709.659,294.671 707.159,297.671 704.5,300.5C 700.167,301.167 695.833,301.833 691.5,302.5C 690.829,303.946 689.662,304.612 688,304.5C 685.171,302.539 682.004,301.206 678.5,300.5C 677.833,299.5 677.167,298.5 676.5,297.5C 673.167,300.5 669.833,303.5 666.5,306.5C 657.184,307.665 647.851,307.832 638.5,307C 634.66,304.157 631.16,300.99 628,297.5C 626.624,300.053 625.457,302.72 624.5,305.5C 625.03,307.865 626.197,309.865 628,311.5C 628.172,315.871 628.672,320.204 629.5,324.5C 631.556,326.019 633.89,326.853 636.5,327C 638.076,328.73 639.41,330.563 640.5,332.5C 636.139,333.021 631.806,333.688 627.5,334.5C 625.47,338.041 623.637,341.708 622,345.5C 620.171,345.565 618.338,345.898 616.5,346.5C 611.817,344.79 610.317,341.457 612,336.5C 612.5,336 613,335.5 613.5,335C 616.167,334.667 618.833,334.333 621.5,334C 619.118,330.068 617.118,325.901 615.5,321.5C 615.39,319.626 616.056,318.126 617.5,317C 615.954,315.56 615.121,313.727 615,311.5C 612.126,309.935 610.626,307.435 610.5,304C 610.984,301.525 612.317,299.692 614.5,298.5C 615.565,291.606 618.899,286.106 624.5,282C 627.554,281.179 630.554,281.345 633.5,282.5C 635.901,292.547 642.234,296.547 652.5,294.5C 659.396,295.49 665.063,293.49 669.5,288.5C 672.391,287.994 675.058,286.994 677.5,285.5C 679.556,287.019 681.89,287.853 684.5,288C 685.667,289.5 686.833,291 688,292.5C 690.933,288.009 695.099,286.342 700.5,287.5C 700.336,284.813 700.503,282.146 701,279.5C 703.19,274.553 706.356,270.219 710.5,266.5C 711.328,262.204 711.828,257.871 712,253.5C 715.252,250.791 718.752,248.458 722.5,246.5C 729.811,245.335 737.144,245.169 744.5,246C 745.623,247.044 746.956,247.71 748.5,248C 750.847,252.362 753.18,256.695 755.5,261C 754.585,264.405 752.918,267.405 750.5,270C 752.594,272.112 754.594,274.278 756.5,276.5C 757.325,277.386 758.325,277.719 759.5,277.5C 760.006,281.007 759.34,284.174 757.5,287C 760.704,287.263 762.704,288.93 763.5,292C 770.844,294.184 773.344,299.017 771,306.5C 768.485,308.423 765.818,310.09 763,311.5C 760.316,310.269 757.816,308.936 755.5,307.5C 753.753,310.832 752.087,314.332 750.5,318C 751.603,323.982 749.937,329.149 745.5,333.5 Z"/></g>
<g><path style="opacity:0.469" fill="#a7a7aa" d="M 874.5,245.5 C 878.03,244.989 881.196,245.656 884,247.5C 886.101,254.591 885.935,261.591 883.5,268.5C 880.482,268.665 877.482,268.498 874.5,268C 873.789,266.745 872.956,265.579 872,264.5C 871.864,260.906 871.698,257.406 871.5,254C 872.935,251.329 873.935,248.495 874.5,245.5 Z"/></g>
<g><path style="opacity:0.433" fill="#a6a8a9" d="M 606.5,251.5 C 610.007,250.994 613.174,251.66 616,253.5C 618.108,258.863 617.941,264.03 615.5,269C 612.199,269.997 608.866,270.33 605.5,270C 602.916,267.439 601.249,264.439 600.5,261C 599.932,257.737 601.266,256.237 604.5,256.5C 604.392,254.486 605.058,252.82 606.5,251.5 Z"/></g>
<g><path style="opacity:0.408" fill="#acadae" d="M 855.5,256.5 C 864.07,255.396 869.403,259.063 871.5,267.5C 870.754,268.736 870.421,270.07 870.5,271.5C 857.078,275.413 852.078,270.413 855.5,256.5 Z"/></g>
<g><path style="opacity:0.266" fill="#aaabad" d="M 576.5,266.5 C 586.206,264.536 589.539,268.202 586.5,277.5C 583.78,279.111 580.78,279.944 577.5,280C 573.413,284.139 569.246,283.973 565,279.5C 563.707,275.418 564.874,272.251 568.5,270C 571.501,269.262 574.168,268.096 576.5,266.5 Z"/></g>
<g><path style="opacity:0.91" fill="#10adec" d="M 171.5,298.5 C 170.258,300.25 168.758,301.917 167,303.5C 166.235,305.066 166.402,306.399 167.5,307.5C 166.981,313.908 165.981,320.241 164.5,326.5C 177.184,326.168 189.851,326.501 202.5,327.5C 203.766,328.362 205.099,329.029 206.5,329.5C 205.962,331.117 205.629,332.784 205.5,334.5C 204.388,336.599 203.721,338.933 203.5,341.5C 203.5,342.167 203.5,342.833 203.5,343.5C 201.72,344.99 201.054,346.99 201.5,349.5C 201.5,350.5 201.5,351.5 201.5,352.5C 199.926,354.102 199.259,356.102 199.5,358.5C 199.5,359.167 199.5,359.833 199.5,360.5C 198.076,362.515 197.41,364.848 197.5,367.5C 197.567,368.959 197.234,370.292 196.5,371.5C 195.539,373.265 195.205,375.265 195.5,377.5C 195.167,378.833 194.833,380.167 194.5,381.5C 193.766,382.878 193.099,384.378 192.5,386C 193.094,386.464 193.761,386.631 194.5,386.5C 194.167,387.5 193.5,388.167 192.5,388.5C 191.508,388.328 190.842,388.662 190.5,389.5C 177.733,389.876 165.066,390.876 152.5,392.5C 147.944,390.558 142.944,389.892 137.5,390.5C 137.5,388.167 137.5,385.833 137.5,383.5C 143.498,382.17 148.831,379.504 153.5,375.5C 157.002,362.905 160.002,350.239 162.5,337.5C 154.16,337.334 145.827,337.5 137.5,338C 126.312,347.18 117.812,358.346 112,371.5C 107.336,388.152 112.17,401.152 126.5,410.5C 132.501,414.304 138.835,416.304 145.5,416.5C 145.675,421.985 144.341,426.985 141.5,431.5C 136.254,431.722 131.254,430.889 126.5,429C 117.366,425.269 109.033,420.269 101.5,414C 99.7379,410.395 97.7379,406.895 95.5,403.5C 94.1667,394.167 94.1667,384.833 95.5,375.5C 101.674,360.328 111.341,347.828 124.5,338C 123.24,335.787 122.574,333.287 122.5,330.5C 124.94,315.254 128.106,300.254 132,285.5C 132.497,282.854 132.664,280.187 132.5,277.5C 146.032,275.447 159.699,274.947 173.5,276C 174.116,277.4 174.449,278.9 174.5,280.5C 173.488,286.523 172.488,292.523 171.5,298.5 Z"/></g>
<g><path style="opacity:0.886" fill="#f5931f" d="M 285.5,386.5 C 284.209,386.263 283.209,386.596 282.5,387.5C 281.833,387.5 281.5,387.833 281.5,388.5C 280.833,388.5 280.167,388.5 279.5,388.5C 278.5,388.5 277.5,388.5 276.5,388.5C 263.748,390.452 250.748,391.118 237.5,390.5C 237.5,387.167 237.5,383.833 237.5,380.5C 237.392,378.486 238.058,376.82 239.5,375.5C 239.5,374.167 239.5,372.833 239.5,371.5C 239.893,369.716 240.559,368.05 241.5,366.5C 241.5,365.167 241.5,363.833 241.5,362.5C 241.216,360.585 241.549,358.919 242.5,357.5C 243.451,356.081 243.784,354.415 243.5,352.5C 243.61,350.902 243.943,349.235 244.5,347.5C 244.954,344.055 246.288,340.888 248.5,338C 234.821,337.833 221.154,337.333 207.5,336.5C 206.757,335.818 206.091,335.151 205.5,334.5C 205.629,332.784 205.962,331.117 206.5,329.5C 208.668,318.901 211.001,308.234 213.5,297.5C 210.15,297.335 206.817,297.502 203.5,298C 191.627,301.176 179.627,304.342 167.5,307.5C 166.402,306.399 166.235,305.066 167,303.5C 168.758,301.917 170.258,300.25 171.5,298.5C 186.571,294.032 201.571,289.365 216.5,284.5C 217.772,281.618 219.105,278.785 220.5,276C 238.167,275.333 255.833,275.333 273.5,276C 274.732,281.438 272.399,283.772 266.5,283C 284.072,284.02 299.738,289.854 313.5,300.5C 323.099,311.031 326.266,323.364 323,337.5C 320.034,347.12 315.367,355.786 309,363.5C 300.94,371.061 293.107,378.728 285.5,386.5 Z M 256.5,295.5 C 268.894,295.621 280.561,298.455 291.5,304C 311.15,317.446 314.983,334.613 303,355.5C 296.405,365.924 288.238,374.258 278.5,380.5C 283.991,363.879 287.491,346.879 289,329.5C 288.075,328.953 287.242,328.287 286.5,327.5C 273.833,326.833 261.167,326.167 248.5,325.5C 251.787,315.685 254.454,305.685 256.5,295.5 Z"/></g>
<g><path style="opacity:0.349" fill="#a5a7a9" d="M 836.5,331.5 C 835.391,332.29 834.058,332.79 832.5,333C 822.5,333.333 812.5,333.667 802.5,334C 799.922,336.228 798.589,339.061 798.5,342.5C 803.167,342.5 807.833,342.5 812.5,342.5C 812.66,344.199 812.494,345.866 812,347.5C 810.441,350.773 808.274,353.44 805.5,355.5C 804.749,354.427 803.749,354.26 802.5,355C 803.406,356.699 803.739,358.533 803.5,360.5C 803.561,363.06 802.228,365.227 799.5,367C 802.674,371.43 801.674,374.597 796.5,376.5C 795.488,375.128 794.488,373.795 793.5,372.5C 792.834,366.519 792.167,360.519 791.5,354.5C 793.192,352.5 794.859,350.5 796.5,348.5C 796.939,344.285 795.273,341.285 791.5,339.5C 790.295,338.314 788.961,338.314 787.5,339.5C 787.5,337.5 787.5,335.5 787.5,333.5C 784.572,333.148 781.738,332.482 779,331.5C 777.933,332.191 776.766,332.691 775.5,333C 772.933,337.284 769.766,341.117 766,344.5C 765.617,343.944 765.117,343.611 764.5,343.5C 763.163,336.352 764.83,330.185 769.5,325C 774.529,324.195 774.696,322.695 770,320.5C 769.333,318.5 769.333,316.5 770,314.5C 773.133,309.061 776.633,303.894 780.5,299C 782.473,298.505 784.473,298.338 786.5,298.5C 786.33,297.178 786.663,296.011 787.5,295C 790.629,293.478 793.963,292.645 797.5,292.5C 809.15,294.488 820.816,295.322 832.5,295C 833.56,296.298 834.726,297.465 836,298.5C 841.65,293.355 847.483,288.355 853.5,283.5C 864.403,289.722 865.403,297.389 856.5,306.5C 855.311,307.429 853.978,307.762 852.5,307.5C 852.067,310.285 850.734,312.619 848.5,314.5C 839.918,318.631 831.251,319.131 822.5,316C 811.453,315.997 800.453,315.83 789.5,315.5C 788.605,317.246 787.938,319.08 787.5,321C 790.039,323.88 792.206,327.046 794,330.5C 797.715,324.681 802.881,322.681 809.5,324.5C 811.968,323.197 814.301,321.697 816.5,320C 822.22,319.212 827.886,319.379 833.5,320.5C 835.064,323.984 836.064,327.65 836.5,331.5 Z"/></g>
<g><path style="opacity:0.425" fill="#a9aaac" d="M 905.5,331.5 C 904.005,331.989 902.671,332.655 901.5,333.5C 899.776,333.461 899.443,333.794 900.5,334.5C 901.372,337.421 901.372,340.421 900.5,343.5C 901.5,343.5 902.5,343.5 903.5,343.5C 902.878,344.627 902.045,345.627 901,346.5C 899.103,344.984 896.936,344.317 894.5,344.5C 894.5,346.167 894.5,347.833 894.5,349.5C 890.5,349.5 886.5,349.5 882.5,349.5C 882.677,347.019 881.677,345.186 879.5,344C 875.931,343.318 872.598,343.818 869.5,345.5C 869.022,348.278 870.022,350.278 872.5,351.5C 875.786,352.042 878.786,353.042 881.5,354.5C 877.077,354.374 872.744,353.707 868.5,352.5C 867.03,348.932 867.364,345.599 869.5,342.5C 873.795,341.339 878.129,341.172 882.5,342C 883.423,344.041 883.756,346.208 883.5,348.5C 886.833,348.5 890.167,348.5 893.5,348.5C 893.384,345.14 893.051,341.807 892.5,338.5C 891.5,338.5 890.5,338.5 889.5,338.5C 889.039,335.697 887.705,333.363 885.5,331.5C 893.372,331.148 894.039,329.148 887.5,325.5C 886.936,321.356 886.103,317.356 885,313.5C 884.765,307.575 883.931,301.742 882.5,296C 883.828,286.336 889.161,280.003 898.5,277C 899.632,274.075 901.799,272.908 905,273.5C 911.644,274.815 914.31,278.815 913,285.5C 909.534,287.181 909.7,288.181 913.5,288.5C 914.397,293.14 914.564,297.806 914,302.5C 913.167,303.333 912.333,304.167 911.5,305C 912.849,305.772 913.682,306.939 914,308.5C 914.667,311.5 914.667,314.5 914,317.5C 910.541,318.133 907.041,318.8 903.5,319.5C 905.363,321.893 906.696,324.56 907.5,327.5C 907.332,329.171 906.665,330.504 905.5,331.5 Z"/></g>
<g><path style="opacity:0.371" fill="#a7a8ab" d="M 559.5,332.5 C 559.611,333.117 559.944,333.617 560.5,334C 559.333,337.833 558.167,341.667 557,345.5C 556.098,347.431 554.931,349.097 553.5,350.5C 552.488,349.128 551.488,347.795 550.5,346.5C 549.508,343.862 548.508,341.195 547.5,338.5C 545.719,336.454 543.719,336.12 541.5,337.5C 541.511,333.648 539.511,331.815 535.5,332C 536.361,329.679 535.361,328.513 532.5,328.5C 532.022,325.722 533.022,323.722 535.5,322.5C 537.362,318.595 536.528,315.595 533,313.5C 532.505,311.527 532.338,309.527 532.5,307.5C 529.482,307.665 526.482,307.498 523.5,307C 521.992,305.493 520.659,303.827 519.5,302C 517.392,301.64 515.392,300.973 513.5,300C 509.816,293.496 504.65,290.996 498,292.5C 496.629,291.419 495.129,290.585 493.5,290C 490.546,284.752 486.88,280.085 482.5,276C 478.881,272.291 474.548,269.791 469.5,268.5C 466.156,264.489 462.489,260.823 458.5,257.5C 456.308,254.721 454.641,251.721 453.5,248.5C 446.323,249.002 439.323,248.335 432.5,246.5C 435.314,249.871 438.314,253.037 441.5,256C 448.286,258.286 452.952,262.786 455.5,269.5C 459.608,272.629 462.941,276.463 465.5,281C 469.758,282.384 473.258,284.884 476,288.5C 476.798,293.518 478.465,298.184 481,302.5C 481.497,304.81 481.663,307.143 481.5,309.5C 483.288,309.215 484.955,309.548 486.5,310.5C 487.37,312.526 488.87,313.859 491,314.5C 491.333,315.833 491.667,317.167 492,318.5C 494.596,322.019 497.429,325.352 500.5,328.5C 501.932,331.327 502.599,334.327 502.5,337.5C 501.982,343.819 500.982,350.152 499.5,356.5C 499.66,358.199 499.494,359.866 499,361.5C 496.916,364.666 494.75,367.666 492.5,370.5C 497.905,360.941 499.738,350.608 498,339.5C 495.434,335.768 491.934,333.434 487.5,332.5C 487.264,330.027 485.931,328.36 483.5,327.5C 482.691,325.929 482.357,324.262 482.5,322.5C 479.671,322.675 478.004,321.342 477.5,318.5C 476.018,320.483 474.351,322.316 472.5,324C 477.385,324.907 480.052,327.74 480.5,332.5C 475.864,333.149 471.198,333.649 466.5,334C 466.026,335.729 465.026,336.895 463.5,337.5C 463.15,333.946 463.816,330.612 465.5,327.5C 464.372,326.738 463.205,326.071 462,325.5C 460.392,322.379 459.559,319.046 459.5,315.5C 453.518,316.173 450.184,313.506 449.5,307.5C 447.183,305.684 445.016,303.684 443,301.5C 442.333,298.833 442.333,296.167 443,293.5C 444.205,292.929 445.372,292.262 446.5,291.5C 444.161,290.582 442.661,288.916 442,286.5C 440.23,288.418 438.063,288.918 435.5,288C 430.801,285.899 426.301,283.399 422,280.5C 421.333,277.833 421.333,275.167 422,272.5C 424.571,270.881 427.238,269.548 430,268.5C 433.53,270.385 437.03,272.218 440.5,274C 440.963,277.132 442.63,278.799 445.5,279C 446.022,278.439 446.355,277.772 446.5,277C 444.903,274.589 443.57,272.089 442.5,269.5C 440.738,269.643 439.071,269.309 437.5,268.5C 434.297,263.942 430.297,260.609 425.5,258.5C 425.5,257.167 425.5,255.833 425.5,254.5C 422.632,254.915 420.465,253.915 419,251.5C 418.5,245.175 418.334,238.842 418.5,232.5C 431.067,233.483 443.734,234.316 456.5,235C 463.264,243.71 470.598,251.876 478.5,259.5C 480.99,261.083 483.657,262.083 486.5,262.5C 486.406,265.541 487.906,267.207 491,267.5C 491.483,268.448 491.649,269.448 491.5,270.5C 494.667,271.32 497.001,273.32 498.5,276.5C 501.447,277.321 504.447,277.821 507.5,278C 508.337,279.011 508.67,280.178 508.5,281.5C 513.691,280.234 517.358,281.901 519.5,286.5C 523.827,287.987 527.494,290.487 530.5,294C 534.167,294.333 537.833,294.667 541.5,295C 542.951,299.466 544.617,299.466 546.5,295C 550.167,294.333 553.833,294.333 557.5,295C 558.805,297.148 560.638,298.648 563,299.5C 563.667,302.833 563.667,306.167 563,309.5C 562.167,311 561,312.167 559.5,313C 565.96,316.084 568.627,321.25 567.5,328.5C 564.833,328.5 562.167,328.5 559.5,328.5C 559.5,329.833 559.5,331.167 559.5,332.5 Z M 463.5,311.5 C 464.401,307.846 465.401,304.179 466.5,300.5C 467.133,303.495 468.133,306.328 469.5,309C 467.372,309.655 465.372,310.489 463.5,311.5 Z M 455.5,291.5 C 459.043,289.96 461.876,290.96 464,294.5C 464.667,295.833 464.667,297.167 464,298.5C 461.86,295.344 459.026,293.01 455.5,291.5 Z M 432.5,246.5 C 431.527,246.013 430.527,245.513 429.5,245C 431.157,244.275 432.157,244.775 432.5,246.5 Z M 463.5,311.5 C 463.483,313.028 462.816,313.528 461.5,313C 462.044,312.283 462.711,311.783 463.5,311.5 Z M 487.5,332.5 C 485.167,332.5 482.833,332.5 480.5,332.5C 480.052,327.74 477.385,324.907 472.5,324C 474.351,322.316 476.018,320.483 477.5,318.5C 478.004,321.342 479.671,322.675 482.5,322.5C 482.357,324.262 482.691,325.929 483.5,327.5C 485.931,328.36 487.264,330.027 487.5,332.5 Z"/></g>
<g><path style="opacity:0.393" fill="#a1a3a5" d="M 1021.5,328.5 C 1022.13,332.247 1022.3,336.247 1022,340.5C 1021.86,343.445 1020.69,345.779 1018.5,347.5C 1018.67,346.178 1018.34,345.011 1017.5,344C 1012.2,342.977 1007.2,343.477 1002.5,345.5C 1002.5,344.5 1002.5,343.5 1002.5,342.5C 1006.85,342.666 1011.18,342.499 1015.5,342C 1016.99,339.874 1018.66,337.874 1020.5,336C 1020.36,335.228 1020.02,334.561 1019.5,334C 1013.82,333.977 1008.32,333.144 1003,331.5C 1002.62,332.056 1002.12,332.389 1001.5,332.5C 1000.94,328.003 1001.61,323.836 1003.5,320C 1006.83,319.333 1010.17,319.333 1013.5,320C 1015.11,322.682 1017.44,324.515 1020.5,325.5C 1021.13,326.417 1021.46,327.417 1021.5,328.5 Z"/></g>
<g><path style="opacity:0.343" fill="#a7a8ab" d="M 992.5,331.5 C 991.737,332.268 990.737,332.768 989.5,333C 986.183,333.498 982.85,333.665 979.5,333.5C 976.404,334.093 974.071,333.093 972.5,330.5C 968.951,329.726 965.618,328.393 962.5,326.5C 960.03,328.538 957.363,330.205 954.5,331.5C 953.833,332.167 953.167,332.833 952.5,333.5C 949.833,333.833 949.833,334.167 952.5,334.5C 951.754,338.323 949.754,341.323 946.5,343.5C 946.516,341.516 945.516,340.516 943.5,340.5C 941.927,340.752 940.594,341.418 939.5,342.5C 941.123,339.785 941.79,336.785 941.5,333.5C 936.929,333.946 932.596,333.28 928.5,331.5C 928.751,329.83 929.418,328.33 930.5,327C 929.069,326.535 927.903,325.701 927,324.5C 926.333,321.167 926.333,317.833 927,314.5C 930.627,313.024 934.127,311.357 937.5,309.5C 941.046,311.192 944.713,312.692 948.5,314C 950.146,315.555 950.479,317.221 949.5,319C 950,319.167 950.5,319.333 951,319.5C 952.274,318.465 953.44,317.298 954.5,316C 960.5,315.333 966.5,315.333 972.5,316C 976.968,318.894 981.968,320.561 987.5,321C 991.981,323.061 993.648,326.561 992.5,331.5 Z"/></g>
<g><path style="opacity:0.836" fill="#f6f6f6" d="M 1021.5,328.5 C 1023.91,328.694 1024.91,330.027 1024.5,332.5C 1028.17,332.5 1031.83,332.5 1035.5,332.5C 1033.46,337.373 1031.79,342.373 1030.5,347.5C 1029.5,347.5 1028.5,347.5 1027.5,347.5C 1024.3,358.877 1020.3,369.877 1015.5,380.5C 1012.5,380.5 1009.5,380.5 1006.5,380.5C 1006.85,377.959 1006.85,375.626 1006.5,373.5C 1007.4,372.791 1007.74,371.791 1007.5,370.5C 1012.67,364.015 1016.34,356.682 1018.5,348.5C 1018.5,348.167 1018.5,347.833 1018.5,347.5C 1020.69,345.779 1021.86,343.445 1022,340.5C 1022.3,336.247 1022.13,332.247 1021.5,328.5 Z"/></g>
<g><path style="opacity:0.901" fill="#f9f9f9" d="M 532.5,328.5 C 535.361,328.513 536.361,329.679 535.5,332C 539.511,331.815 541.511,333.648 541.5,337.5C 540.504,337.414 539.671,337.748 539,338.5C 538.5,352.496 538.333,366.496 538.5,380.5C 535.833,380.5 533.167,380.5 530.5,380.5C 530.813,376.958 530.479,373.625 529.5,370.5C 523.074,369.88 517.074,370.547 511.5,372.5C 509.861,374.806 507.861,376.806 505.5,378.5C 502.432,380.632 499.099,380.965 495.5,379.5C 500.838,372.416 506.171,365.416 511.5,358.5C 512.797,356.082 513.13,353.749 512.5,351.5C 517.158,345.825 521.492,339.825 525.5,333.5C 528.447,332.679 531.447,332.179 534.5,332C 533.177,331.184 532.511,330.017 532.5,328.5 Z"/></g>
<g><path style="opacity:0.956" fill="#ededed" d="M 787.5,339.5 C 787.5,353.5 787.5,367.5 787.5,381.5C 784.833,381.5 782.167,381.5 779.5,381.5C 777.748,381.582 776.748,380.749 776.5,379C 777.348,376.23 777.681,373.397 777.5,370.5C 771.31,370.177 765.31,370.51 759.5,371.5C 756.97,374.688 754.304,377.855 751.5,381C 748.312,382.316 744.978,382.816 741.5,382.5C 741.201,380.396 741.534,378.396 742.5,376.5C 745.59,372.077 748.256,367.41 750.5,362.5C 751.338,362.158 751.672,361.492 751.5,360.5C 756.393,357.938 759.393,353.938 760.5,348.5C 762.587,347.415 763.92,345.749 764.5,343.5C 765.117,343.611 765.617,343.944 766,344.5C 769.766,341.117 772.933,337.284 775.5,333C 776.766,332.691 777.933,332.191 779,331.5C 781.738,332.482 784.572,333.148 787.5,333.5C 787.5,335.5 787.5,337.5 787.5,339.5 Z"/></g>
<g><path style="opacity:0.907" fill="#f2f2f2" d="M 836.5,331.5 C 839.015,331.769 841.015,332.769 842.5,334.5C 840.748,336.246 839.415,338.246 838.5,340.5C 838.423,341.75 837.756,342.583 836.5,343C 832.179,343.499 827.846,343.666 823.5,343.5C 822.01,347.793 820.677,352.127 819.5,356.5C 817.827,357.343 816.66,358.676 816,360.5C 813.386,366.284 811.386,372.284 810,378.5C 809.092,380.439 807.592,381.439 805.5,381.5C 802.455,381.508 799.455,381.841 796.5,382.5C 796.5,380.5 796.5,378.5 796.5,376.5C 801.674,374.597 802.674,371.43 799.5,367C 802.228,365.227 803.561,363.06 803.5,360.5C 805.256,359.448 805.923,357.781 805.5,355.5C 808.274,353.44 810.441,350.773 812,347.5C 812.494,345.866 812.66,344.199 812.5,342.5C 807.833,342.5 803.167,342.5 798.5,342.5C 798.589,339.061 799.922,336.228 802.5,334C 812.5,333.667 822.5,333.333 832.5,333C 834.058,332.79 835.391,332.29 836.5,331.5 Z"/></g>
<g><path style="opacity:0.874" fill="#f3f3f3" d="M 905.5,331.5 C 913.167,332.833 920.833,332.833 928.5,331.5C 932.596,333.28 936.929,333.946 941.5,333.5C 941.79,336.785 941.123,339.785 939.5,342.5C 939.167,342.5 938.833,342.5 938.5,342.5C 933.57,342.197 928.737,342.531 924,343.5C 921.137,353.075 917.637,362.409 913.5,371.5C 912.071,374.308 911.405,377.308 911.5,380.5C 907.477,381.075 903.477,381.741 899.5,382.5C 897.856,382.19 896.856,381.19 896.5,379.5C 896.5,378.833 896.5,378.167 896.5,377.5C 899.167,376.833 899.167,376.167 896.5,375.5C 897.78,374.069 899.447,373.402 901.5,373.5C 904.169,366.442 906.836,359.442 909.5,352.5C 910.97,349.682 911.97,346.682 912.5,343.5C 909.5,343.5 906.5,343.5 903.5,343.5C 902.5,343.5 901.5,343.5 900.5,343.5C 901.372,340.421 901.372,337.421 900.5,334.5C 901.167,334.5 901.5,334.167 901.5,333.5C 902.671,332.655 904.005,331.989 905.5,331.5 Z"/></g>
<g><path style="opacity:0.924" fill="#f2f2f2" d="M 954.5,331.5 C 959.939,331.936 965.272,332.936 970.5,334.5C 969.877,336.711 968.877,338.711 967.5,340.5C 966.504,353.656 966.171,366.99 966.5,380.5C 962.705,381.617 958.705,382.283 954.5,382.5C 955.162,378.534 955.495,374.534 955.5,370.5C 949.824,370.334 944.157,370.501 938.5,371C 935.572,374.029 933.572,377.529 932.5,381.5C 928.459,381.675 924.459,381.842 920.5,382C 919.978,381.439 919.645,380.772 919.5,380C 920.364,377.21 921.697,374.71 923.5,372.5C 924.338,372.158 924.672,371.492 924.5,370.5C 926.478,368.741 928.644,367.075 931,365.5C 932.588,361.988 934.421,358.655 936.5,355.5C 937.167,355.5 937.5,355.167 937.5,354.5C 940.72,351.087 943.72,347.421 946.5,343.5C 949.754,341.323 951.754,338.323 952.5,334.5C 952.5,334.167 952.5,333.833 952.5,333.5C 953.167,332.833 953.833,332.167 954.5,331.5 Z"/></g>
<g><path style="opacity:0.885" fill="#f5f5f5" d="M 992.5,331.5 C 995.391,332.403 998.391,332.736 1001.5,332.5C 1002.12,332.389 1002.62,332.056 1003,331.5C 1008.32,333.144 1013.82,333.977 1019.5,334C 1020.02,334.561 1020.36,335.228 1020.5,336C 1018.66,337.874 1016.99,339.874 1015.5,342C 1011.18,342.499 1006.85,342.666 1002.5,342.5C 1002.5,343.5 1002.5,344.5 1002.5,345.5C 1001.89,346.391 1001.56,347.391 1001.5,348.5C 998.092,353.321 995.758,358.654 994.5,364.5C 994.5,364.833 994.5,365.167 994.5,365.5C 992.174,369.391 990.008,373.391 988,377.5C 987.51,378.793 987.343,380.127 987.5,381.5C 984.941,381.198 982.607,381.532 980.5,382.5C 979.167,382.5 977.833,382.5 976.5,382.5C 978.036,375.655 980.036,368.989 982.5,362.5C 983.167,361.167 983.833,359.833 984.5,358.5C 983.553,356.242 984.553,355.075 987.5,355C 988.88,353.075 990.38,351.241 992,349.5C 992.497,347.19 992.663,344.857 992.5,342.5C 988.278,342.263 984.111,342.596 980,343.5C 978.699,343.361 977.866,342.695 977.5,341.5C 977.5,341.167 977.5,340.833 977.5,340.5C 977.166,337.812 977.832,335.479 979.5,333.5C 982.85,333.665 986.183,333.498 989.5,333C 990.737,332.768 991.737,332.268 992.5,331.5 Z"/></g>
<g><path style="opacity:0.861" fill="#f2f3f3" d="M 406.5,335.5 C 407.527,339.446 407.694,343.446 407,347.5C 404.807,350.993 402.307,354.16 399.5,357C 400.707,358.3 401.374,359.8 401.5,361.5C 402.231,366.073 401.231,370.073 398.5,373.5C 394.069,375.215 389.735,377.215 385.5,379.5C 376.852,380.332 368.186,380.832 359.5,381C 358.584,381.278 357.918,381.778 357.5,382.5C 356.5,382.5 355.5,382.5 354.5,382.5C 353.12,382.038 352.453,381.038 352.5,379.5C 358.834,364.179 365.167,348.846 371.5,333.5C 382.151,332.334 392.818,332.168 403.5,333C 404.571,333.852 405.571,334.685 406.5,335.5 Z"/></g>
<g><path style="opacity:0.883" fill="#f1f1f1" d="M 447.5,334.5 C 446.962,336.117 446.629,337.784 446.5,339.5C 445.504,353.323 445.171,367.323 445.5,381.5C 443.167,381.5 440.833,381.5 438.5,381.5C 437.167,381.5 435.833,381.5 434.5,381.5C 434.5,377.5 434.5,373.5 434.5,369.5C 428.167,369.5 421.833,369.5 415.5,369.5C 413.545,373.14 411.545,376.806 409.5,380.5C 409.5,381.167 409.167,381.5 408.5,381.5C 398.72,382.923 397.22,380.256 404,373.5C 404.483,372.552 404.649,371.552 404.5,370.5C 408.503,364.163 412.503,357.829 416.5,351.5C 418.73,348.603 421.396,345.937 424.5,343.5C 428.378,333.359 435.712,329.859 446.5,333C 447.056,333.383 447.389,333.883 447.5,334.5 Z"/></g>
<g><path style="opacity:0.883" fill="#f3f3f3" d="M 480.5,332.5 C 482.833,332.5 485.167,332.5 487.5,332.5C 491.934,333.434 495.434,335.768 498,339.5C 499.738,350.608 497.905,360.941 492.5,370.5C 488.09,376.493 482.09,379.993 474.5,381C 466.173,381.5 457.84,381.666 449.5,381.5C 449.401,378.763 449.735,376.096 450.5,373.5C 451.505,370.279 452.339,366.946 453,363.5C 453.383,362.944 453.883,362.611 454.5,362.5C 457.458,354.302 460.458,345.969 463.5,337.5C 465.026,336.895 466.026,335.729 466.5,334C 471.198,333.649 475.864,333.149 480.5,332.5 Z M 482.5,357.5 C 483.401,358.29 484.068,359.29 484.5,360.5C 483.333,362.041 482,363.375 480.5,364.5C 480.166,361.812 480.832,359.479 482.5,357.5 Z M 480.5,364.5 C 480.5,365.833 479.833,366.5 478.5,366.5C 478.5,365.167 479.167,364.5 480.5,364.5 Z"/></g>
<g><path style="opacity:0.862" fill="#f6f6f6" d="M 559.5,332.5 C 565.271,331.887 570.604,332.554 575.5,334.5C 574.573,342.993 575.907,351.327 579.5,359.5C 580.086,359.291 580.586,358.957 581,358.5C 581.841,355.49 582.674,352.49 583.5,349.5C 582.79,346.201 582.457,342.867 582.5,339.5C 583.966,340.347 584.8,341.68 585,343.5C 586.111,339.97 587.611,336.636 589.5,333.5C 593.795,332.339 598.129,332.172 602.5,333C 603.056,333.383 603.389,333.883 603.5,334.5C 601.686,336.709 599.852,339.043 598,341.5C 596.132,347.834 593.632,353.834 590.5,359.5C 587.504,366.148 584.504,372.815 581.5,379.5C 578.428,379.817 575.428,379.484 572.5,378.5C 571.948,376.667 571.115,375 570,373.5C 569.626,365.713 568.459,358.047 566.5,350.5C 564.566,350.901 563.066,351.901 562,353.5C 559.323,362.367 556.156,371.034 552.5,379.5C 550.591,380.348 548.591,380.682 546.5,380.5C 546.524,375.077 547.19,369.743 548.5,364.5C 548.433,363.041 548.766,361.708 549.5,360.5C 551.316,357.539 552.65,354.205 553.5,350.5C 554.931,349.097 556.098,347.431 557,345.5C 558.167,341.667 559.333,337.833 560.5,334C 559.944,333.617 559.611,333.117 559.5,332.5 Z"/></g>
<g><path style="opacity:0.841" fill="#f4f4f4" d="M 640.5,332.5 C 647.377,332.006 654.044,332.673 660.5,334.5C 662.02,340.627 661.686,346.627 659.5,352.5C 655.577,356.914 650.91,360.414 645.5,363C 639.5,363.333 633.5,363.667 627.5,364C 625.491,366.854 624.158,370.021 623.5,373.5C 622.781,376.073 621.781,378.573 620.5,381C 616.886,381.936 613.22,382.436 609.5,382.5C 608.393,377.845 609.393,373.512 612.5,369.5C 612.205,367.265 612.539,365.265 613.5,363.5C 614.623,364.757 615.289,364.424 615.5,362.5C 615.328,361.508 615.662,360.842 616.5,360.5C 617.212,356.218 618.879,352.218 621.5,348.5C 619.709,347.83 618.042,347.163 616.5,346.5C 618.338,345.898 620.171,345.565 622,345.5C 623.637,341.708 625.47,338.041 627.5,334.5C 631.806,333.688 636.139,333.021 640.5,332.5 Z"/></g>
<g><path style="opacity:0.824" fill="#efefef" d="M 684.5,334.5 C 680.002,341.662 676.668,349.329 674.5,357.5C 672.291,358.896 670.791,360.896 670,363.5C 668.243,368.485 669.91,371.151 675,371.5C 677.805,371.179 680.305,370.179 682.5,368.5C 684.426,367.758 686.259,366.758 688,365.5C 688.554,362.173 689.054,359.173 689.5,356.5C 690.749,351.876 692.749,347.542 695.5,343.5C 696.599,339.821 697.599,336.154 698.5,332.5C 702.846,332.334 707.179,332.501 711.5,333C 712.056,333.383 712.389,333.883 712.5,334.5C 706.699,344.457 702.199,355.124 699,366.5C 690.022,381.387 677.522,385.387 661.5,378.5C 660.614,377.675 660.281,376.675 660.5,375.5C 659.5,375.5 658.5,375.5 657.5,375.5C 657.5,374.833 657.5,374.167 657.5,373.5C 657.5,371.833 657.5,370.167 657.5,368.5C 659.341,365.007 661.007,361.34 662.5,357.5C 664.024,351.321 666.024,345.321 668.5,339.5C 669.449,337.263 670.116,334.929 670.5,332.5C 675.619,331.897 680.285,332.564 684.5,334.5 Z"/></g>
<g><path style="opacity:0.916" fill="#f2f2f2" d="M 730.5,331.5 C 735.405,332.572 740.405,333.238 745.5,333.5C 746.29,334.401 747.29,335.068 748.5,335.5C 749.602,339.747 749.768,344.08 749,348.5C 745.943,349.451 742.777,349.784 739.5,349.5C 739.392,344.424 736.726,342.091 731.5,342.5C 726.893,343.117 724.893,345.783 725.5,350.5C 728.914,350.736 732.247,351.402 735.5,352.5C 737.856,354.69 740.356,356.69 743,358.5C 745.064,367.865 741.898,374.531 733.5,378.5C 728.883,379.328 724.217,379.994 719.5,380.5C 713.215,381.598 708.381,379.598 705,374.5C 704.333,371.833 704.333,369.167 705,366.5C 706.302,365.915 707.469,365.249 708.5,364.5C 709.833,364.5 711.167,364.5 712.5,364.5C 713.167,364.5 713.833,364.5 714.5,364.5C 714.833,364.5 715.167,364.5 715.5,364.5C 714.826,369.826 717.159,372.159 722.5,371.5C 727.066,371.609 730.399,369.609 732.5,365.5C 732.471,363.971 731.804,362.804 730.5,362C 724.892,360.386 719.725,357.886 715,354.5C 714.386,348.297 715.219,342.297 717.5,336.5C 717.5,336.167 717.5,335.833 717.5,335.5C 721.635,333.471 725.969,332.138 730.5,331.5 Z"/></g>
<g><path style="opacity:0.871" fill="#f3f3f3" d="M 885.5,331.5 C 887.705,333.363 889.039,335.697 889.5,338.5C 890.5,338.5 891.5,338.5 892.5,338.5C 893.051,341.807 893.384,345.14 893.5,348.5C 890.167,348.5 886.833,348.5 883.5,348.5C 883.756,346.208 883.423,344.041 882.5,342C 878.129,341.172 873.795,341.339 869.5,342.5C 867.364,345.599 867.03,348.932 868.5,352.5C 872.744,353.707 877.077,354.374 881.5,354.5C 886.221,355.592 888.221,358.592 887.5,363.5C 885.264,376.558 877.431,382.558 864,381.5C 860.833,381.167 857.667,380.833 854.5,380.5C 852.242,379.201 849.908,378.201 847.5,377.5C 847.5,373.167 847.5,368.833 847.5,364.5C 851.167,364.5 854.833,364.5 858.5,364.5C 860.912,364.694 861.912,366.027 861.5,368.5C 861.611,369.117 861.944,369.617 862.5,370C 866.841,370.77 871.008,370.27 875,368.5C 875.798,366.741 875.631,365.074 874.5,363.5C 872.026,362.68 869.693,361.68 867.5,360.5C 863.128,359.614 859.462,357.614 856.5,354.5C 856.5,353.167 856.5,351.833 856.5,350.5C 856.904,347.413 858.237,344.746 860.5,342.5C 861.466,340.604 861.799,338.604 861.5,336.5C 862.937,335.275 864.604,334.275 866.5,333.5C 872.886,332.796 879.22,332.129 885.5,331.5 Z"/></g>
<g><path style="opacity:0.892" fill="#ececec" d="M 1045.5,332.5 C 1053.53,332.169 1061.53,332.502 1069.5,333.5C 1070.6,334.176 1071.6,334.842 1072.5,335.5C 1072.33,336.492 1072.66,337.158 1073.5,337.5C 1073.5,341.5 1073.5,345.5 1073.5,349.5C 1070.17,349.5 1066.83,349.5 1063.5,349.5C 1061.95,343.119 1057.95,341.119 1051.5,343.5C 1049.41,345.789 1049.07,348.289 1050.5,351C 1055.36,351.973 1060.02,353.473 1064.5,355.5C 1067.73,357.288 1069.39,360.121 1069.5,364C 1066.15,376.183 1058.15,382.017 1045.5,381.5C 1037.85,383.265 1032.01,380.931 1028,374.5C 1027.33,371.5 1027.33,368.5 1028,365.5C 1031.06,364.549 1034.22,364.216 1037.5,364.5C 1038.17,364.5 1038.83,364.5 1039.5,364.5C 1040.68,365.974 1041.68,367.64 1042.5,369.5C 1043.94,370.063 1045.44,370.397 1047,370.5C 1049.55,369.806 1052.05,368.973 1054.5,368C 1055.86,366.062 1055.53,364.396 1053.5,363C 1047.88,361.324 1042.72,358.824 1038,355.5C 1037.5,351.848 1037.33,348.182 1037.5,344.5C 1041.32,341.832 1044.32,338.332 1046.5,334C 1045.94,333.617 1045.61,333.117 1045.5,332.5 Z"/></g>
<g><path style="opacity:0.826" fill="#f0f0f0" d="M 1138.5,333.5 C 1136.35,336.569 1134.01,339.569 1131.5,342.5C 1129.54,350.044 1127.21,357.378 1124.5,364.5C 1123.16,369.525 1121.66,374.525 1120,379.5C 1119.17,380.333 1118.33,381.167 1117.5,382C 1114.52,382.498 1111.52,382.665 1108.5,382.5C 1105.92,381.952 1104.92,380.285 1105.5,377.5C 1106.5,377.5 1107.5,377.5 1108.5,377.5C 1108.34,375.473 1108.5,373.473 1109,371.5C 1111.41,365.763 1113.91,360.096 1116.5,354.5C 1117.34,351.813 1118.84,349.48 1121,347.5C 1121.85,344.079 1122.52,340.746 1123,337.5C 1121.38,339.241 1119.88,341.075 1118.5,343C 1114.18,343.499 1109.85,343.666 1105.5,343.5C 1105.66,344.873 1105.49,346.207 1105,347.5C 1102.64,351.009 1100.64,354.676 1099,358.5C 1098.01,361.424 1097.35,364.424 1097,367.5C 1093.64,371.615 1091.47,376.282 1090.5,381.5C 1089.17,381.5 1087.83,381.5 1086.5,381.5C 1083.87,382.092 1081.21,382.425 1078.5,382.5C 1078.63,378.715 1079.3,375.048 1080.5,371.5C 1082.18,370.817 1082.84,369.483 1082.5,367.5C 1083.5,367.5 1084.5,367.5 1085.5,367.5C 1085.63,363.048 1086.3,358.714 1087.5,354.5C 1090.27,351.301 1092.27,347.635 1093.5,343.5C 1088.71,344.097 1084.37,343.43 1080.5,341.5C 1080.11,338.534 1080.78,335.868 1082.5,333.5C 1101.64,332.7 1120.3,332.7 1138.5,333.5 Z M 1116.5,354.5 C 1113.91,360.096 1111.41,365.763 1109,371.5C 1108.5,373.473 1108.34,375.473 1108.5,377.5C 1107.5,377.5 1106.5,377.5 1105.5,377.5C 1107.08,371.003 1109.24,364.669 1112,358.5C 1112.88,356.365 1114.38,355.031 1116.5,354.5 Z"/></g>
<g><path style="opacity:0.887" fill="#eaeaeb" d="M 1158.5,334.5 C 1153.38,338.578 1150.88,343.911 1151,350.5C 1154.14,346.846 1157.64,343.846 1161.5,341.5C 1161.83,339.678 1162.5,338.011 1163.5,336.5C 1165.08,335.934 1166.41,334.934 1167.5,333.5C 1170.83,333.167 1174.17,332.833 1177.5,332.5C 1181.24,332.514 1184.57,333.18 1187.5,334.5C 1187.63,335.376 1187.3,336.043 1186.5,336.5C 1184.83,337.167 1183.17,337.833 1181.5,338.5C 1180.61,339.325 1180.28,340.325 1180.5,341.5C 1175.77,343.696 1171.1,346.196 1166.5,349C 1165.09,350.413 1164.09,352.08 1163.5,354C 1165.13,359.137 1166.63,364.303 1168,369.5C 1170.95,372.913 1172.12,376.913 1171.5,381.5C 1166.83,381.5 1162.17,381.5 1157.5,381.5C 1156.07,374.783 1154.73,368.116 1153.5,361.5C 1152.13,361.343 1150.79,361.51 1149.5,362C 1147.3,364.54 1144.8,366.707 1142,368.5C 1140.18,372.79 1138.68,377.123 1137.5,381.5C 1133.81,381.895 1130.15,382.062 1126.5,382C 1125.92,381.107 1125.59,380.107 1125.5,379C 1129.38,367.111 1134.22,355.611 1140,344.5C 1141.15,341.221 1141.98,337.887 1142.5,334.5C 1144.57,333.191 1147.07,332.525 1150,332.5C 1153.11,332.611 1155.94,333.278 1158.5,334.5 Z"/></g>
<g><path style="opacity:0.226" fill="#a4a5a6" d="M 1045.5,332.5 C 1045.61,333.117 1045.94,333.617 1046.5,334C 1044.32,338.332 1041.32,341.832 1037.5,344.5C 1037.53,343.503 1037.03,342.836 1036,342.5C 1034.39,343.101 1033.06,344.101 1032,345.5C 1027.41,355.109 1023.25,364.943 1019.5,375C 1018.49,377.243 1017.15,379.076 1015.5,380.5C 1020.3,369.877 1024.3,358.877 1027.5,347.5C 1028.5,347.5 1029.5,347.5 1030.5,347.5C 1031.79,342.373 1033.46,337.373 1035.5,332.5C 1039.01,329.959 1042.35,329.959 1045.5,332.5 Z"/></g>
<g><path style="opacity:0.098" fill="#020203" d="M 447.5,334.5 C 449.936,334.317 452.103,334.984 454,336.5C 454.5,345.16 454.666,353.827 454.5,362.5C 453.883,362.611 453.383,362.944 453,363.5C 452.339,366.946 451.505,370.279 450.5,373.5C 448.933,374.681 448.099,376.347 448,378.5C 447.667,378.167 447.333,377.833 447,377.5C 446.5,364.838 446.333,352.171 446.5,339.5C 446.629,337.784 446.962,336.117 447.5,334.5 Z"/></g>
<g><path style="opacity:0.111" fill="#161616" d="M 660.5,334.5 C 663.149,336.14 665.816,337.807 668.5,339.5C 666.024,345.321 664.024,351.321 662.5,357.5C 661.167,357.5 659.833,357.5 658.5,357.5C 658.629,355.784 658.962,354.117 659.5,352.5C 661.686,346.627 662.02,340.627 660.5,334.5 Z"/></g>
<g><path style="opacity:0.129" fill="#0a0a0a" d="M 684.5,334.5 C 686.936,334.317 689.103,334.984 691,336.5C 691.667,340.5 691.667,344.5 691,348.5C 689.733,350.814 688.566,353.148 687.5,355.5C 686.833,355.5 686.5,355.833 686.5,356.5C 684.453,356.511 682.453,356.844 680.5,357.5C 678.82,359.009 676.986,360.343 675,361.5C 674.5,361.167 674,360.833 673.5,360.5C 674.127,359.583 674.461,358.583 674.5,357.5C 676.668,349.329 680.002,341.662 684.5,334.5 Z"/></g>
<g><path style="opacity:0.075" fill="#080808" d="M 970.5,334.5 C 971.93,334.421 973.264,334.754 974.5,335.5C 975.065,337.544 976.065,339.21 977.5,340.5C 977.5,340.833 977.5,341.167 977.5,341.5C 974.902,342.76 972.569,344.427 970.5,346.5C 969.5,346.5 968.5,346.5 967.5,346.5C 967.5,344.5 967.5,342.5 967.5,340.5C 968.877,338.711 969.877,336.711 970.5,334.5 Z"/></g>
<g><path style="opacity:0.107" fill="#080808" d="M 1138.5,334.5 C 1139.83,334.5 1141.17,334.5 1142.5,334.5C 1141.98,337.887 1141.15,341.221 1140,344.5C 1134.22,355.611 1129.38,367.111 1125.5,379C 1125.59,380.107 1125.92,381.107 1126.5,382C 1130.15,382.062 1133.81,381.895 1137.5,381.5C 1138.68,377.123 1140.18,372.79 1142,368.5C 1144.8,366.707 1147.3,364.54 1149.5,362C 1150.79,361.51 1152.13,361.343 1153.5,361.5C 1154.73,368.116 1156.07,374.783 1157.5,381.5C 1162.17,381.5 1166.83,381.5 1171.5,381.5C 1172.12,376.913 1170.95,372.913 1168,369.5C 1166.63,364.303 1165.13,359.137 1163.5,354C 1164.09,352.08 1165.09,350.413 1166.5,349C 1171.1,346.196 1175.77,343.696 1180.5,341.5C 1180.28,340.325 1180.61,339.325 1181.5,338.5C 1183.17,337.833 1184.83,337.167 1186.5,336.5C 1187.3,336.043 1187.63,335.376 1187.5,334.5C 1192.65,335.797 1194.49,339.13 1193,344.5C 1186.59,350.616 1180.09,356.616 1173.5,362.5C 1175.19,368.062 1177.35,373.395 1180,378.5C 1180.67,382.833 1180.67,387.167 1180,391.5C 1173.58,392.643 1167.08,392.81 1160.5,392C 1158.15,387.388 1156.48,382.555 1155.5,377.5C 1153.86,377.286 1152.36,377.62 1151,378.5C 1149.59,383.433 1147.42,387.933 1144.5,392C 1132.83,392.667 1121.17,392.667 1109.5,392C 1108.69,389.895 1107.69,387.895 1106.5,386C 1106.98,384.697 1107.64,383.531 1108.5,382.5C 1111.52,382.665 1114.52,382.498 1117.5,382C 1118.33,381.167 1119.17,380.333 1120,379.5C 1121.66,374.525 1123.16,369.525 1124.5,364.5C 1125.46,364.047 1126.29,363.381 1127,362.5C 1129.63,352.608 1133.46,343.275 1138.5,334.5 Z"/></g>
<g><path style="opacity:0.092" fill="#151616" d="M 1158.5,334.5 C 1160.51,334.392 1162.18,335.058 1163.5,336.5C 1162.5,338.011 1161.83,339.678 1161.5,341.5C 1157.64,343.846 1154.14,346.846 1151,350.5C 1150.88,343.911 1153.38,338.578 1158.5,334.5 Z"/></g>
<g><path style="opacity:0.123" fill="#0b0b0b" d="M 406.5,335.5 C 413.887,338.269 417.22,343.602 416.5,351.5C 412.503,357.829 408.503,364.163 404.5,370.5C 403.503,370.53 402.836,370.03 402.5,369C 402.994,367.538 403.327,366.038 403.5,364.5C 403.36,362.97 402.693,361.97 401.5,361.5C 401.374,359.8 400.707,358.3 399.5,357C 402.307,354.16 404.807,350.993 407,347.5C 407.694,343.446 407.527,339.446 406.5,335.5 Z"/></g>
<g><path style="opacity:0.026" fill="#121212" d="M 1072.5,335.5 C 1075.74,336.738 1078.4,338.738 1080.5,341.5C 1084.37,343.43 1088.71,344.097 1093.5,343.5C 1092.27,347.635 1090.27,351.301 1087.5,354.5C 1087.34,351.682 1086.01,349.682 1083.5,348.5C 1083.39,347.883 1083.06,347.383 1082.5,347C 1080.19,346.503 1077.86,346.337 1075.5,346.5C 1075.14,343.311 1074.47,340.311 1073.5,337.5C 1072.66,337.158 1072.33,336.492 1072.5,335.5 Z"/></g>
<g><path style="opacity:0.15" fill="#090909" d="M 550.5,346.5 C 549.514,350.97 549.181,355.637 549.5,360.5C 548.766,361.708 548.433,363.041 548.5,364.5C 545.305,369.619 543.805,375.285 544,381.5C 547.418,382.266 550.918,382.266 554.5,381.5C 555.892,376.822 557.392,372.156 559,367.5C 561.406,363.776 562.906,359.776 563.5,355.5C 564.5,355.5 565.5,355.5 566.5,355.5C 567.93,362.656 568.597,369.989 568.5,377.5C 566.692,382.499 564.359,387.332 561.5,392C 558.854,392.497 556.187,392.664 553.5,392.5C 550.851,390.86 548.184,389.193 545.5,387.5C 542.165,386.875 539.165,385.375 536.5,383C 537.416,382.722 538.082,382.222 538.5,381.5C 539.117,381.389 539.617,381.056 540,380.5C 540.217,366.135 540.717,351.802 541.5,337.5C 543.719,336.12 545.719,336.454 547.5,338.5C 548.508,341.195 549.508,343.862 550.5,346.5 Z"/></g>
<g><path style="opacity:0.96" fill="#8cc53f" d="M 244.5,347.5 C 243.943,349.235 243.61,350.902 243.5,352.5C 242.549,353.919 242.216,355.585 242.5,357.5C 241.549,358.919 241.216,360.585 241.5,362.5C 240.167,363.833 240.167,365.167 241.5,366.5C 240.559,368.05 239.893,369.716 239.5,371.5C 238.167,372.833 238.167,374.167 239.5,375.5C 238.058,376.82 237.392,378.486 237.5,380.5C 235.532,385.925 234.032,391.592 233,397.5C 232.355,398.646 231.522,399.646 230.5,400.5C 216.85,401.499 203.183,401.833 189.5,401.5C 188.347,407.759 186.68,413.759 184.5,419.5C 183.886,421.283 182.72,422.616 181,423.5C 180.55,427.188 180.717,430.854 181.5,434.5C 180.916,440.338 179.582,446.005 177.5,451.5C 164.183,452.499 150.85,452.833 137.5,452.5C 137.336,449.813 137.503,447.146 138,444.5C 139.126,440.188 140.293,435.854 141.5,431.5C 144.341,426.985 145.675,421.985 145.5,416.5C 146.206,408.675 147.706,401.008 150,393.5C 150.671,392.748 151.504,392.414 152.5,392.5C 165.066,390.876 177.733,389.876 190.5,389.5C 191.492,389.672 192.158,389.338 192.5,388.5C 193.5,388.167 194.167,387.5 194.5,386.5C 194.5,384.833 194.5,383.167 194.5,381.5C 194.833,380.167 195.167,378.833 195.5,377.5C 196.461,375.735 196.795,373.735 196.5,371.5C 197.234,370.292 197.567,368.959 197.5,367.5C 199.344,365.721 200.01,363.388 199.5,360.5C 199.5,359.833 199.5,359.167 199.5,358.5C 201.308,357.082 201.975,355.082 201.5,352.5C 201.5,351.5 201.5,350.5 201.5,349.5C 203.308,348.082 203.975,346.082 203.5,343.5C 203.5,342.833 203.5,342.167 203.5,341.5C 204.922,341.25 205.922,340.417 206.5,339C 218.829,338.5 231.162,338.333 243.5,338.5C 244.159,341.455 244.492,344.455 244.5,347.5 Z"/></g>
<g><path style="opacity:0.172" fill="#09090a" d="M 791.5,339.5 C 795.273,341.285 796.939,344.285 796.5,348.5C 794.215,349.931 791.715,350.931 789,351.5C 788.333,347.833 788.333,344.167 789,340.5C 789.671,339.748 790.504,339.414 791.5,339.5 Z"/></g>
<g><path style="opacity:0.181" fill="#0f0f0f" d="M 946.5,343.5 C 943.72,347.421 940.72,351.087 937.5,354.5C 935.585,354.216 933.919,354.549 932.5,355.5C 931.791,356.404 930.791,356.737 929.5,356.5C 921.906,356.738 920.573,353.904 925.5,348C 927.833,347.667 930.167,347.333 932.5,347C 933.337,345.989 933.67,344.822 933.5,343.5C 935.415,343.784 937.081,343.451 938.5,342.5C 938.833,342.5 939.167,342.5 939.5,342.5C 940.594,341.418 941.927,340.752 943.5,340.5C 945.516,340.516 946.516,341.516 946.5,343.5 Z"/></g>
<g><path style="opacity:0.158" fill="#070708" d="M 847.5,350.5 C 847.175,352.132 846.175,353.132 844.5,353.5C 840.482,354.035 836.482,354.702 832.5,355.5C 829.752,359.506 827.752,363.839 826.5,368.5C 825.833,368.833 825.167,369.167 824.5,369.5C 822.833,369.5 821.167,369.5 819.5,369.5C 819.5,365.167 819.5,360.833 819.5,356.5C 820.677,352.127 822.01,347.793 823.5,343.5C 827.846,343.666 832.179,343.499 836.5,343C 837.756,342.583 838.423,341.75 838.5,340.5C 839.458,340.047 840.292,339.381 841,338.5C 841.333,341.5 841.667,344.5 842,347.5C 843.264,349.607 845.097,350.607 847.5,350.5 Z"/></g>
<g><path style="opacity:0.313" fill="#9c9c9e" d="M 842.5,334.5 C 849.062,334.022 855.396,334.689 861.5,336.5C 861.799,338.604 861.466,340.604 860.5,342.5C 858.237,344.746 856.904,347.413 856.5,350.5C 853.5,350.5 850.5,350.5 847.5,350.5C 845.097,350.607 843.264,349.607 842,347.5C 841.667,344.5 841.333,341.5 841,338.5C 840.292,339.381 839.458,340.047 838.5,340.5C 839.415,338.246 840.748,336.246 842.5,334.5 Z"/></g>
<g><path style="opacity:0.16" fill="#080808" d="M 1116.5,354.5 C 1114.38,355.031 1112.88,356.365 1112,358.5C 1109.24,364.669 1107.08,371.003 1105.5,377.5C 1103.06,382.307 1100.39,387.141 1097.5,392C 1094.18,392.498 1090.85,392.665 1087.5,392.5C 1086.76,388.881 1086.42,385.215 1086.5,381.5C 1087.83,381.5 1089.17,381.5 1090.5,381.5C 1091.47,376.282 1093.64,371.615 1097,367.5C 1097.35,364.424 1098.01,361.424 1099,358.5C 1100.64,354.676 1102.64,351.009 1105,347.5C 1105.49,346.207 1105.66,344.873 1105.5,343.5C 1109.85,343.666 1114.18,343.499 1118.5,343C 1119.88,341.075 1121.38,339.241 1123,337.5C 1122.52,340.746 1121.85,344.079 1121,347.5C 1118.84,349.48 1117.34,351.813 1116.5,354.5 Z"/></g>
<g><path style="opacity:0.298" fill="#161616" d="M 379.5,343.5 C 384.167,343.5 388.833,343.5 393.5,343.5C 393.5,345.5 393.5,347.5 393.5,349.5C 391.654,349.222 390.32,349.889 389.5,351.5C 385.555,352.491 381.555,352.824 377.5,352.5C 378.92,349.739 379.587,346.739 379.5,343.5 Z"/></g>
<g><path style="opacity:0.278" fill="#0e0e0e" d="M 637.5,343.5 C 641.437,343.207 645.27,343.54 649,344.5C 649.162,348.843 646.995,351.176 642.5,351.5C 639.155,349.98 637.489,347.313 637.5,343.5 Z"/></g>
<g><path style="opacity:0.256" fill="#101111" d="M 1018.5,347.5 C 1018.5,347.833 1018.5,348.167 1018.5,348.5C 1015.81,349.552 1013.14,350.552 1010.5,351.5C 1009.25,355.003 1007.25,358.003 1004.5,360.5C 1002.61,360.703 1001.11,360.037 1000,358.5C 999.674,355.015 1000.17,351.682 1001.5,348.5C 1001.56,347.391 1001.89,346.391 1002.5,345.5C 1007.2,343.477 1012.2,342.977 1017.5,344C 1018.34,345.011 1018.67,346.178 1018.5,347.5 Z"/></g>
<g><path style="opacity:0.416" fill="#696a6a" d="M 575.5,334.5 C 579.851,333.533 582.185,335.2 582.5,339.5C 582.457,342.867 582.79,346.201 583.5,349.5C 582.674,352.49 581.841,355.49 581,358.5C 580.586,358.957 580.086,359.291 579.5,359.5C 575.907,351.327 574.573,342.993 575.5,334.5 Z"/></g>
<g><path style="opacity:0.572" fill="#4c4d4d" d="M 637.5,343.5 C 637.489,347.313 639.155,349.98 642.5,351.5C 642.196,352.15 641.863,352.817 641.5,353.5C 638.232,354.487 634.898,354.82 631.5,354.5C 631.575,351.593 632.409,348.927 634,346.5C 634.759,344.937 635.926,343.937 637.5,343.5 Z"/></g>
<g><path style="opacity:0.737" fill="#a6a6a6" d="M 1138.5,333.5 C 1138.5,333.833 1138.5,334.167 1138.5,334.5C 1133.46,343.275 1129.63,352.608 1127,362.5C 1126.29,363.381 1125.46,364.047 1124.5,364.5C 1127.21,357.378 1129.54,350.044 1131.5,342.5C 1134.01,339.569 1136.35,336.569 1138.5,333.5 Z"/></g>
<g><path style="opacity:0.181" fill="#151515" d="M 487.5,344.5 C 487.657,345.873 487.49,347.207 487,348.5C 483.07,345.25 480.904,346.084 480.5,351C 481.091,353.239 481.758,355.406 482.5,357.5C 480.832,359.479 480.166,361.812 480.5,364.5C 479.167,364.5 478.5,365.167 478.5,366.5C 476.704,367.793 475.037,369.293 473.5,371C 470.518,371.498 467.518,371.665 464.5,371.5C 464.03,368.654 464.863,366.321 467,364.5C 468.504,357.832 470.837,351.499 474,345.5C 478.253,343.16 482.753,342.827 487.5,344.5 Z"/></g>
<g><path style="opacity:0.397" fill="#5b5b5c" d="M 502.5,337.5 C 505.091,338.254 506.924,339.921 508,342.5C 508.849,345.521 509.683,348.521 510.5,351.5C 509.432,352.434 508.099,352.768 506.5,352.5C 506.665,355.518 506.498,358.518 506,361.5C 505.617,362.056 505.117,362.389 504.5,362.5C 503.491,359.951 502.658,357.285 502,354.5C 501.292,355.381 500.458,356.047 499.5,356.5C 500.982,350.152 501.982,343.819 502.5,337.5 Z"/></g>
<g><path style="opacity:0.52" fill="#8e8e8e" d="M 528.5,360.5 C 526.052,361.473 523.385,361.806 520.5,361.5C 520.699,359.04 521.365,356.707 522.5,354.5C 524.362,351.459 526.695,348.792 529.5,346.5C 529.833,348.5 530.167,350.5 530.5,352.5C 530.713,355.527 530.047,358.193 528.5,360.5 Z"/></g>
<g><path style="opacity:0.676" fill="#888989" d="M 949.5,357.5 C 949.586,358.496 949.252,359.329 948.5,360C 950.473,360.495 952.473,360.662 954.5,360.5C 954.806,357.615 954.473,354.948 953.5,352.5C 953.585,350.071 954.585,348.071 956.5,346.5C 957.662,351.131 957.828,355.798 957,360.5C 953.943,361.451 950.777,361.784 947.5,361.5C 947.229,359.62 947.896,358.287 949.5,357.5 Z"/></g>
<g><path style="opacity:0.441" fill="#424343" d="M 1073.5,337.5 C 1074.47,340.311 1075.14,343.311 1075.5,346.5C 1077.86,346.337 1080.19,346.503 1082.5,347C 1083.06,347.383 1083.39,347.883 1083.5,348.5C 1081.98,348.511 1080.82,349.177 1080,350.5C 1079.98,352.797 1080.15,355.131 1080.5,357.5C 1075.43,354.412 1070.1,353.746 1064.5,355.5C 1060.02,353.473 1055.36,351.973 1050.5,351C 1049.07,348.289 1049.41,345.789 1051.5,343.5C 1057.95,341.119 1061.95,343.119 1063.5,349.5C 1066.83,349.5 1070.17,349.5 1073.5,349.5C 1073.5,345.5 1073.5,341.5 1073.5,337.5 Z"/></g>
<g><path style="opacity:0.316" fill="#1d1d1d" d="M 433.5,349.5 C 434.482,352.962 434.815,356.629 434.5,360.5C 431.482,360.665 428.482,360.498 425.5,360C 427.647,356.031 430.313,352.531 433.5,349.5 Z"/></g>
<g><path style="opacity:0.471" fill="#c1c1c2" d="M 510.5,351.5 C 511.167,351.5 511.833,351.5 512.5,351.5C 513.13,353.749 512.797,356.082 511.5,358.5C 506.171,365.416 500.838,372.416 495.5,379.5C 499.099,380.965 502.432,380.632 505.5,378.5C 505.586,379.496 505.252,380.329 504.5,381C 500.903,382.277 497.236,382.61 493.5,382C 492.978,381.439 492.645,380.772 492.5,380C 496.328,374.013 500.328,368.18 504.5,362.5C 505.117,362.389 505.617,362.056 506,361.5C 506.498,358.518 506.665,355.518 506.5,352.5C 508.099,352.768 509.432,352.434 510.5,351.5 Z"/></g>
<g><path style="opacity:0.035" fill="#8f9091" d="M 487.5,344.5 C 488.809,345.624 489.475,347.124 489.5,349C 488.238,352.026 487.238,355.192 486.5,358.5C 485.818,359.243 485.151,359.909 484.5,360.5C 484.068,359.29 483.401,358.29 482.5,357.5C 481.758,355.406 481.091,353.239 480.5,351C 480.904,346.084 483.07,345.25 487,348.5C 487.49,347.207 487.657,345.873 487.5,344.5 Z"/></g>
<g><path style="opacity:0.325" fill="#141414" d="M 528.5,360.5 C 526.143,360.663 523.81,360.497 521.5,360C 523.232,356.746 525.232,353.58 527.5,350.5C 528.487,353.768 528.82,357.102 528.5,360.5 Z"/></g>
<g><path style="opacity:0.324" fill="#171717" d="M 774.5,350.5 C 776.402,353.337 777.069,356.671 776.5,360.5C 774.143,360.663 771.81,360.497 769.5,360C 770.983,356.698 772.65,353.531 774.5,350.5 Z"/></g>
<g><path style="opacity:0.12" fill="#98999a" d="M 977.5,341.5 C 977.866,342.695 978.699,343.361 980,343.5C 984.111,342.596 988.278,342.263 992.5,342.5C 992.663,344.857 992.497,347.19 992,349.5C 990.38,351.241 988.88,353.075 987.5,355C 984.553,355.075 983.553,356.242 984.5,358.5C 981.833,358.5 979.167,358.5 976.5,358.5C 975.167,358.5 974.5,357.833 974.5,356.5C 969.602,354.79 968.269,351.457 970.5,346.5C 972.569,344.427 974.902,342.76 977.5,341.5 Z"/></g>
<g><path style="opacity:0.135" fill="#0b0b0b" d="M 1037.5,344.5 C 1037.33,348.182 1037.5,351.848 1038,355.5C 1042.72,358.824 1047.88,361.324 1053.5,363C 1055.53,364.396 1055.86,366.062 1054.5,368C 1052.05,368.973 1049.55,369.806 1047,370.5C 1045.44,370.397 1043.94,370.063 1042.5,369.5C 1041.68,367.64 1040.68,365.974 1039.5,364.5C 1038.83,363.167 1038.17,363.167 1037.5,364.5C 1034.22,364.216 1031.06,364.549 1028,365.5C 1027.33,368.5 1027.33,371.5 1028,374.5C 1032.01,380.931 1037.85,383.265 1045.5,381.5C 1058.15,382.017 1066.15,376.183 1069.5,364C 1069.39,360.121 1067.73,357.288 1064.5,355.5C 1070.1,353.746 1075.43,354.412 1080.5,357.5C 1080.5,358.5 1080.5,359.5 1080.5,360.5C 1078.4,360.201 1076.4,360.534 1074.5,361.5C 1078.76,369.519 1078.26,377.185 1073,384.5C 1066.3,391.307 1058.13,393.974 1048.5,392.5C 1041.36,389.5 1034.52,385.833 1028,381.5C 1025.24,382.308 1022.57,383.308 1020,384.5C 1019.82,386.488 1019.99,388.488 1020.5,390.5C 1022.99,390.131 1023.66,390.797 1022.5,392.5C 1017.82,392.666 1013.15,392.499 1008.5,392C 1006.84,390.512 1005.84,388.679 1005.5,386.5C 1008.57,384.098 1011.91,382.098 1015.5,380.5C 1017.15,379.076 1018.49,377.243 1019.5,375C 1023.25,364.943 1027.41,355.109 1032,345.5C 1033.06,344.101 1034.39,343.101 1036,342.5C 1037.03,342.836 1037.53,343.503 1037.5,344.5 Z"/></g>
<g><path style="opacity:0.153" fill="#080808" d="M 504.5,362.5 C 500.328,368.18 496.328,374.013 492.5,380C 492.645,380.772 492.978,381.439 493.5,382C 497.236,382.61 500.903,382.277 504.5,381C 505.252,380.329 505.586,379.496 505.5,378.5C 507.861,376.806 509.861,374.806 511.5,372.5C 514.547,370.887 517.047,371.554 519,374.5C 519.674,377.26 520.507,379.927 521.5,382.5C 519.629,382.859 518.129,383.859 517,385.5C 514.944,391.881 510.61,394.215 504,392.5C 501.167,392.333 498.333,392.167 495.5,392C 494.44,390.702 493.274,389.535 492,388.5C 489.536,389.85 487.036,391.016 484.5,392C 468.5,392.667 452.5,392.667 436.5,392C 433.971,389.358 432.971,386.192 433.5,382.5C 435.415,382.784 437.081,382.451 438.5,381.5C 440.833,381.5 443.167,381.5 445.5,381.5C 446.833,381.5 448.167,381.5 449.5,381.5C 457.84,381.666 466.173,381.5 474.5,381C 482.09,379.993 488.09,376.493 492.5,370.5C 494.75,367.666 496.916,364.666 499,361.5C 499.494,359.866 499.66,358.199 499.5,356.5C 500.458,356.047 501.292,355.381 502,354.5C 502.658,357.285 503.491,359.951 504.5,362.5 Z"/></g>
<g><path style="opacity:0.029" fill="#121212" d="M 856.5,354.5 C 859.462,357.614 863.128,359.614 867.5,360.5C 866.282,361.161 864.949,361.828 863.5,362.5C 862.95,364.657 862.283,366.657 861.5,368.5C 861.912,366.027 860.912,364.694 858.5,364.5C 856.819,361.418 856.152,358.085 856.5,354.5 Z"/></g>
<g><path style="opacity:0.34" fill="#181819" d="M 953.5,352.5 C 954.473,354.948 954.806,357.615 954.5,360.5C 952.473,360.662 950.473,360.495 948.5,360C 949.252,359.329 949.586,358.496 949.5,357.5C 950.604,355.611 951.937,353.945 953.5,352.5 Z"/></g>
<g><path style="opacity:0.1" fill="#0f0f0f" d="M 974.5,356.5 C 974.5,357.833 975.167,358.5 976.5,358.5C 976.5,359.167 976.5,359.833 976.5,360.5C 974.617,362.763 973.284,365.43 972.5,368.5C 971.726,369.711 970.893,369.711 970,368.5C 969.435,365.322 968.768,362.322 968,359.5C 969.465,357.085 971.632,356.085 974.5,356.5 Z"/></g>
<g><path style="opacity:0.342" fill="#9ea0a2" d="M 909.5,352.5 C 906.836,359.442 904.169,366.442 901.5,373.5C 899.447,373.402 897.78,374.069 896.5,375.5C 890.62,367.65 891.287,360.317 898.5,353.5C 902.107,352.511 905.774,352.177 909.5,352.5 Z"/></g>
<g><path style="opacity:0.555" fill="#59595a" d="M 659.5,352.5 C 658.962,354.117 658.629,355.784 658.5,357.5C 659.833,357.5 661.167,357.5 662.5,357.5C 661.007,361.34 659.341,365.007 657.5,368.5C 657.5,366.833 657.5,365.167 657.5,363.5C 647.55,364.826 637.55,365.492 627.5,365.5C 626.73,368.496 625.396,371.163 623.5,373.5C 624.158,370.021 625.491,366.854 627.5,364C 633.5,363.667 639.5,363.333 645.5,363C 650.91,360.414 655.577,356.914 659.5,352.5 Z"/></g>
<g><path style="opacity:0.316" fill="#a4a5a9" d="M 1083.5,348.5 C 1086.01,349.682 1087.34,351.682 1087.5,354.5C 1086.3,358.714 1085.63,363.048 1085.5,367.5C 1084.5,367.5 1083.5,367.5 1082.5,367.5C 1082.84,369.483 1082.18,370.817 1080.5,371.5C 1080.5,367.833 1080.5,364.167 1080.5,360.5C 1080.5,359.5 1080.5,358.5 1080.5,357.5C 1080.15,355.131 1079.98,352.797 1080,350.5C 1080.82,349.177 1081.98,348.511 1083.5,348.5 Z"/></g>
<g><path style="opacity:0.147" fill="#0a0a0a" d="M 603.5,334.5 C 606.952,334.448 609.119,336.115 610,339.5C 610.585,343.322 610.085,346.989 608.5,350.5C 606.251,349.87 603.918,350.203 601.5,351.5C 595.649,355.582 594.149,360.915 597,367.5C 597.417,368.756 598.25,369.423 599.5,369.5C 597.627,375.896 595.46,382.229 593,388.5C 590.056,392.114 586.223,393.447 581.5,392.5C 580.815,389.247 579.815,386.081 578.5,383C 579.793,382.51 581.127,382.343 582.5,382.5C 585.531,375.079 588.197,367.412 590.5,359.5C 593.632,353.834 596.132,347.834 598,341.5C 599.852,339.043 601.686,336.709 603.5,334.5 Z"/></g>
<g><path style="opacity:0.302" fill="#9b9c9e" d="M 932.5,355.5 C 933.833,355.5 935.167,355.5 936.5,355.5C 934.421,358.655 932.588,361.988 931,365.5C 928.644,367.075 926.478,368.741 924.5,370.5C 924.523,368.4 923.856,366.567 922.5,365C 923,363.5 923.5,362 924,360.5C 925.98,359.251 927.813,357.918 929.5,356.5C 930.791,356.737 931.791,356.404 932.5,355.5 Z"/></g>
<g><path style="opacity:0.536" fill="#48494a" d="M 1001.5,348.5 C 1000.17,351.682 999.674,355.015 1000,358.5C 1001.11,360.037 1002.61,360.703 1004.5,360.5C 1001.75,362.008 1000.92,364.341 1002,367.5C 1003.13,369.141 1004.63,370.141 1006.5,370.5C 1006.16,371.338 1005.49,371.672 1004.5,371.5C 1001.81,369.797 999.808,367.464 998.5,364.5C 997.192,363.374 995.858,363.374 994.5,364.5C 995.758,358.654 998.092,353.321 1001.5,348.5 Z"/></g>
<g><path style="opacity:0.349" fill="#9d9fa2" d="M 608.5,350.5 C 609.568,351.434 610.901,351.768 612.5,351.5C 613.466,354.756 614.799,357.756 616.5,360.5C 615.662,360.842 615.328,361.508 615.5,362.5C 614.833,362.833 614.167,363.167 613.5,363.5C 612.539,365.265 612.205,367.265 612.5,369.5C 609.77,369.473 607.27,370.14 605,371.5C 603.061,371.046 601.228,370.379 599.5,369.5C 598.25,369.423 597.417,368.756 597,367.5C 594.149,360.915 595.649,355.582 601.5,351.5C 603.918,350.203 606.251,349.87 608.5,350.5 Z"/></g>
<g><path style="opacity:0.296" fill="#101010" d="M 373.5,362.5 C 378.214,362.173 382.88,362.507 387.5,363.5C 389.964,366.213 389.297,368.213 385.5,369.5C 380.204,371.165 374.871,371.498 369.5,370.5C 371.03,367.896 372.363,365.229 373.5,362.5 Z"/></g>
<g><path style="opacity:0.3" fill="#a7a8aa" d="M 687.5,355.5 C 687.842,356.338 688.508,356.672 689.5,356.5C 689.054,359.173 688.554,362.173 688,365.5C 686.259,366.758 684.426,367.758 682.5,368.5C 682.374,366.8 681.707,365.3 680.5,364C 681.622,360.72 683.622,358.22 686.5,356.5C 686.5,355.833 686.833,355.5 687.5,355.5 Z"/></g>
<g><path style="opacity:0.529" fill="#6e6f6f" d="M 867.5,360.5 C 869.693,361.68 872.026,362.68 874.5,363.5C 875.631,365.074 875.798,366.741 875,368.5C 871.008,370.27 866.841,370.77 862.5,370C 861.944,369.617 861.611,369.117 861.5,368.5C 862.283,366.657 862.95,364.657 863.5,362.5C 864.949,361.828 866.282,361.161 867.5,360.5 Z"/></g>
<g><path style="opacity:0.534" fill="#4d4d4e" d="M 938.5,342.5 C 937.081,343.451 935.415,343.784 933.5,343.5C 933.67,344.822 933.337,345.989 932.5,347C 930.167,347.333 927.833,347.667 925.5,348C 920.573,353.904 921.906,356.738 929.5,356.5C 927.813,357.918 925.98,359.251 924,360.5C 923.5,362 923,363.5 922.5,365C 923.856,366.567 924.523,368.4 924.5,370.5C 924.672,371.492 924.338,372.158 923.5,372.5C 923.5,371.167 923.5,369.833 923.5,368.5C 921.523,369.149 919.69,369.149 918,368.5C 916.357,369.315 914.857,370.315 913.5,371.5C 917.637,362.409 921.137,353.075 924,343.5C 928.737,342.531 933.57,342.197 938.5,342.5 Z"/></g>
<g><path style="opacity:0.145" fill="#030303" d="M 657.5,368.5 C 657.5,370.167 657.5,371.833 657.5,373.5C 650.714,375.171 643.714,376.004 636.5,376C 633.751,381.501 630.751,386.834 627.5,392C 622.167,392.667 616.833,392.667 611.5,392C 609.66,389.174 608.994,386.007 609.5,382.5C 613.22,382.436 616.886,381.936 620.5,381C 621.781,378.573 622.781,376.073 623.5,373.5C 625.396,371.163 626.73,368.496 627.5,365.5C 637.55,365.492 647.55,364.826 657.5,363.5C 657.5,365.167 657.5,366.833 657.5,368.5 Z"/></g>
<g><path style="opacity:0.275" fill="#9fa0a2" d="M 1018.5,348.5 C 1016.34,356.682 1012.67,364.015 1007.5,370.5C 1007.17,370.5 1006.83,370.5 1006.5,370.5C 1004.63,370.141 1003.13,369.141 1002,367.5C 1000.92,364.341 1001.75,362.008 1004.5,360.5C 1007.25,358.003 1009.25,355.003 1010.5,351.5C 1013.14,350.552 1015.81,349.552 1018.5,348.5 Z"/></g>
<g><path style="opacity:0.4" fill="#474848" d="M 446.5,339.5 C 446.333,352.171 446.5,364.838 447,377.5C 447.333,377.833 447.667,378.167 448,378.5C 448.099,376.347 448.933,374.681 450.5,373.5C 449.735,376.096 449.401,378.763 449.5,381.5C 448.167,381.5 446.833,381.5 445.5,381.5C 445.171,367.323 445.504,353.323 446.5,339.5 Z"/></g>
<g><path style="opacity:0.173" fill="#0d0d0d" d="M 1004.5,371.5 C 1004.5,372.167 1004.5,372.833 1004.5,373.5C 1003.83,373.5 1003.17,373.5 1002.5,373.5C 999.846,373.135 996.846,372.801 993.5,372.5C 993.674,370.139 994.007,367.806 994.5,365.5C 994.5,365.167 994.5,364.833 994.5,364.5C 995.858,363.374 997.192,363.374 998.5,364.5C 999.808,367.464 1001.81,369.797 1004.5,371.5 Z"/></g>
<g><path style="opacity:0.743" fill="#acadad" d="M 541.5,337.5 C 540.717,351.802 540.217,366.135 540,380.5C 539.617,381.056 539.117,381.389 538.5,381.5C 536.335,381.116 534.668,381.783 533.5,383.5C 534.95,384.85 535.617,386.516 535.5,388.5C 532.692,388.307 530.025,387.64 527.5,386.5C 525.611,385.396 523.945,384.063 522.5,382.5C 522.5,380.5 522.5,378.5 522.5,376.5C 527.931,377.906 530.265,375.906 529.5,370.5C 530.479,373.625 530.813,376.958 530.5,380.5C 533.167,380.5 535.833,380.5 538.5,380.5C 538.333,366.496 538.5,352.496 539,338.5C 539.671,337.748 540.504,337.414 541.5,337.5 Z"/></g>
<g><path style="opacity:0.481" fill="#454647" d="M 819.5,356.5 C 819.5,360.833 819.5,365.167 819.5,369.5C 821.167,369.5 822.833,369.5 824.5,369.5C 820.248,370.928 818.082,373.928 818,378.5C 815.097,380.546 813.264,383.213 812.5,386.5C 810.167,386.5 807.833,386.5 805.5,386.5C 805.5,384.833 805.5,383.167 805.5,381.5C 807.592,381.439 809.092,380.439 810,378.5C 811.386,372.284 813.386,366.284 816,360.5C 816.66,358.676 817.827,357.343 819.5,356.5 Z"/></g>
<g><path style="opacity:0.417" fill="#a6a7aa" d="M 981.5,361.5 C 981.5,362.167 981.833,362.5 982.5,362.5C 980.036,368.989 978.036,375.655 976.5,382.5C 975.596,381.791 975.263,380.791 975.5,379.5C 972.851,377.441 972.018,374.775 973,371.5C 974,368.5 975,365.5 976,362.5C 977.762,361.926 979.595,361.593 981.5,361.5 Z"/></g>
<g><path style="opacity:0.361" fill="#505151" d="M 686.5,356.5 C 683.622,358.22 681.622,360.72 680.5,364C 681.707,365.3 682.374,366.8 682.5,368.5C 680.305,370.179 677.805,371.179 675,371.5C 669.91,371.151 668.243,368.485 670,363.5C 670.791,360.896 672.291,358.896 674.5,357.5C 674.461,358.583 674.127,359.583 673.5,360.5C 674,360.833 674.5,361.167 675,361.5C 676.986,360.343 678.82,359.009 680.5,357.5C 682.453,356.844 684.453,356.511 686.5,356.5 Z"/></g>
<g><path style="opacity:0.351" fill="#4a4a4b" d="M 401.5,361.5 C 402.693,361.97 403.36,362.97 403.5,364.5C 403.327,366.038 402.994,367.538 402.5,369C 402.836,370.03 403.503,370.53 404.5,370.5C 404.649,371.552 404.483,372.552 404,373.5C 397.22,380.256 398.72,382.923 408.5,381.5C 405.375,382.479 402.042,382.813 398.5,382.5C 398.222,379.71 398.889,377.21 400.5,375C 400.317,373.316 399.65,373.15 398.5,374.5C 398.5,374.167 398.5,373.833 398.5,373.5C 401.231,370.073 402.231,366.073 401.5,361.5 Z"/></g>
<g><path style="opacity:0.133" fill="#0c0c0c" d="M 903.5,343.5 C 906.5,343.5 909.5,343.5 912.5,343.5C 911.97,346.682 910.97,349.682 909.5,352.5C 905.774,352.177 902.107,352.511 898.5,353.5C 891.287,360.317 890.62,367.65 896.5,375.5C 896.5,376.167 896.5,376.833 896.5,377.5C 896.5,378.167 896.5,378.833 896.5,379.5C 890.387,389.34 881.387,393.673 869.5,392.5C 860.199,394.318 853.032,391.318 848,383.5C 847.505,381.527 847.338,379.527 847.5,377.5C 849.908,378.201 852.242,379.201 854.5,380.5C 857.667,380.833 860.833,381.167 864,381.5C 877.431,382.558 885.264,376.558 887.5,363.5C 888.221,358.592 886.221,355.592 881.5,354.5C 878.786,353.042 875.786,352.042 872.5,351.5C 870.022,350.278 869.022,348.278 869.5,345.5C 872.598,343.818 875.931,343.318 879.5,344C 881.677,345.186 882.677,347.019 882.5,349.5C 886.5,349.5 890.5,349.5 894.5,349.5C 894.5,347.833 894.5,346.167 894.5,344.5C 896.936,344.317 899.103,344.984 901,346.5C 902.045,345.627 902.878,344.627 903.5,343.5 Z"/></g>
<g><path style="opacity:0.549" fill="#515253" d="M 967.5,340.5 C 967.5,342.5 967.5,344.5 967.5,346.5C 968.5,346.5 969.5,346.5 970.5,346.5C 968.269,351.457 969.602,354.79 974.5,356.5C 971.632,356.085 969.465,357.085 968,359.5C 968.768,362.322 969.435,365.322 970,368.5C 970.893,369.711 971.726,369.711 972.5,368.5C 973.284,365.43 974.617,362.763 976.5,360.5C 978.415,360.216 980.081,360.549 981.5,361.5C 979.595,361.593 977.762,361.926 976,362.5C 975,365.5 974,368.5 973,371.5C 972.018,374.775 972.851,377.441 975.5,379.5C 973.072,378.788 970.739,377.788 968.5,376.5C 967.828,377.949 967.161,379.282 966.5,380.5C 966.171,366.99 966.504,353.656 967.5,340.5 Z"/></g>
<g><path style="opacity:0.156" fill="#040404" d="M 433.5,382.5 C 430.482,382.335 427.482,382.502 424.5,383C 421.812,385.83 419.812,388.996 418.5,392.5C 412.491,392.666 406.491,392.499 400.5,392C 399.167,390 397.833,390 396.5,392C 383.167,392.667 369.833,392.667 356.5,392C 354.924,389.049 354.257,385.883 354.5,382.5C 355.5,382.5 356.5,382.5 357.5,382.5C 368.492,381.925 379.492,381.259 390.5,380.5C 393.57,379.014 396.236,377.014 398.5,374.5C 399.65,373.15 400.317,373.316 400.5,375C 398.889,377.21 398.222,379.71 398.5,382.5C 402.042,382.813 405.375,382.479 408.5,381.5C 409.167,381.5 409.5,381.167 409.5,380.5C 411.782,377.878 414.115,375.212 416.5,372.5C 422.128,371.505 427.794,371.171 433.5,371.5C 433.5,375.167 433.5,378.833 433.5,382.5 Z"/></g>
<g><path style="opacity:0.144" fill="#0e0e0e" d="M 712.5,334.5 C 714.292,334.366 715.958,334.699 717.5,335.5C 717.5,335.833 717.5,336.167 717.5,336.5C 712.126,343.04 711.46,350.04 715.5,357.5C 717.99,359.083 720.657,360.083 723.5,360.5C 723.5,361.5 723.5,362.5 723.5,363.5C 720.721,363.279 718.054,363.612 715.5,364.5C 715.167,364.5 714.833,364.5 714.5,364.5C 713.305,360.714 712.638,360.714 712.5,364.5C 711.167,364.5 709.833,364.5 708.5,364.5C 705.192,363.974 703.026,365.307 702,368.5C 701.201,373.087 701.368,377.587 702.5,382C 704.669,382.429 706.669,381.929 708.5,380.5C 716.139,381.801 723.805,381.801 731.5,380.5C 732.243,379.818 732.909,379.151 733.5,378.5C 741.898,374.531 745.064,367.865 743,358.5C 740.356,356.69 737.856,354.69 735.5,352.5C 732.247,351.402 728.914,350.736 725.5,350.5C 724.893,345.783 726.893,343.117 731.5,342.5C 736.726,342.091 739.392,344.424 739.5,349.5C 742.777,349.784 745.943,349.451 749,348.5C 749.768,344.08 749.602,339.747 748.5,335.5C 753.991,337.661 757.324,341.661 758.5,347.5C 758.957,348.298 759.624,348.631 760.5,348.5C 759.393,353.938 756.393,357.938 751.5,360.5C 750.662,360.842 750.328,361.508 750.5,362.5C 748.256,367.41 745.59,372.077 742.5,376.5C 741.534,378.396 741.201,380.396 741.5,382.5C 744.978,382.816 748.312,382.316 751.5,381C 754.304,377.855 756.97,374.688 759.5,371.5C 764.833,371.5 770.167,371.5 775.5,371.5C 772.821,374.866 770.488,378.533 768.5,382.5C 765.495,385.318 762.828,388.484 760.5,392C 754.5,392.667 748.5,392.667 742.5,392C 741.892,391.13 741.059,390.63 740,390.5C 735.642,391.742 731.142,392.408 726.5,392.5C 722.5,392.333 718.5,392.167 714.5,392C 710.427,389.769 706.76,386.935 703.5,383.5C 700.131,387.073 696.131,389.74 691.5,391.5C 683.855,392.665 676.188,392.831 668.5,392C 666.242,390.07 663.742,388.57 661,387.5C 659.136,383.737 657.969,379.737 657.5,375.5C 658.5,375.5 659.5,375.5 660.5,375.5C 660.281,376.675 660.614,377.675 661.5,378.5C 677.522,385.387 690.022,381.387 699,366.5C 702.199,355.124 706.699,344.457 712.5,334.5 Z M 714.5,364.5 C 713.833,364.5 713.167,364.5 712.5,364.5C 712.638,360.714 713.305,360.714 714.5,364.5 Z"/></g>
<g><path style="opacity:0.292" fill="#8e8f90" d="M 717.5,336.5 C 715.219,342.297 714.386,348.297 715,354.5C 719.725,357.886 724.892,360.386 730.5,362C 731.804,362.804 732.471,363.971 732.5,365.5C 730.399,369.609 727.066,371.609 722.5,371.5C 717.159,372.159 714.826,369.826 715.5,364.5C 718.054,363.612 720.721,363.279 723.5,363.5C 723.5,362.5 723.5,361.5 723.5,360.5C 720.657,360.083 717.99,359.083 715.5,357.5C 711.46,350.04 712.126,343.04 717.5,336.5 Z"/></g>
<g><path style="opacity:0.136" fill="#0c0c0c" d="M 923.5,372.5 C 921.697,374.71 920.364,377.21 919.5,380C 919.645,380.772 919.978,381.439 920.5,382C 924.459,381.842 928.459,381.675 932.5,381.5C 933.572,377.529 935.572,374.029 938.5,371C 944.157,370.501 949.824,370.334 955.5,370.5C 955.495,374.534 955.162,378.534 954.5,382.5C 951.813,382.336 949.146,382.503 946.5,383C 944.167,386 941.833,389 939.5,392C 933.5,392.667 927.5,392.667 921.5,392C 920.809,390.933 920.309,389.766 920,388.5C 919.355,389.646 918.522,390.646 917.5,391.5C 912.533,392.662 907.533,392.829 902.5,392C 899.814,389.454 898.814,386.287 899.5,382.5C 903.477,381.741 907.477,381.075 911.5,380.5C 911.405,377.308 912.071,374.308 913.5,371.5C 914.857,370.315 916.357,369.315 918,368.5C 919.69,369.149 921.523,369.149 923.5,368.5C 923.5,369.833 923.5,371.167 923.5,372.5 Z"/></g>
<g><path style="opacity:0.598" fill="#464747" d="M 529.5,370.5 C 530.265,375.906 527.931,377.906 522.5,376.5C 522.5,378.5 522.5,380.5 522.5,382.5C 522.167,382.5 521.833,382.5 521.5,382.5C 520.507,379.927 519.674,377.26 519,374.5C 517.047,371.554 514.547,370.887 511.5,372.5C 517.074,370.547 523.074,369.88 529.5,370.5 Z"/></g>
<g><path style="opacity:0.038" fill="#040404" d="M 793.5,372.5 C 794.488,373.795 795.488,375.128 796.5,376.5C 796.5,378.5 796.5,380.5 796.5,382.5C 796.253,384.858 796.919,386.858 798.5,388.5C 796.5,389.833 794.5,391.167 792.5,392.5C 793.677,390.897 793.511,389.564 792,388.5C 791.333,382.833 791.333,377.167 792,371.5C 792.383,372.056 792.883,372.389 793.5,372.5 Z"/></g>
<g><path style="opacity:0.583" fill="#4f5051" d="M 994.5,365.5 C 994.007,367.806 993.674,370.139 993.5,372.5C 996.846,372.801 999.846,373.135 1002.5,373.5C 1000.74,374.461 998.735,374.795 996.5,374.5C 996.316,378.079 996.983,381.413 998.5,384.5C 996.513,381.682 994.013,379.348 991,377.5C 988.843,378.385 988.01,380.052 988.5,382.5C 985.833,382.5 983.167,382.5 980.5,382.5C 982.607,381.532 984.941,381.198 987.5,381.5C 987.343,380.127 987.51,378.793 988,377.5C 990.008,373.391 992.174,369.391 994.5,365.5 Z"/></g>
<g><path style="opacity:0.514" fill="#989999" d="M 438.5,381.5 C 437.081,382.451 435.415,382.784 433.5,382.5C 433.5,378.833 433.5,375.167 433.5,371.5C 427.794,371.171 422.128,371.505 416.5,372.5C 414.115,375.212 411.782,377.878 409.5,380.5C 411.545,376.806 413.545,373.14 415.5,369.5C 421.833,369.5 428.167,369.5 434.5,369.5C 434.5,373.5 434.5,377.5 434.5,381.5C 435.833,381.5 437.167,381.5 438.5,381.5 Z"/></g>
<g><path style="opacity:0.459" fill="#9e9fa1" d="M 826.5,368.5 C 830.212,369.019 832.545,371.186 833.5,375C 831.849,382.011 831.016,389.178 831,396.5C 830.293,398.081 829.46,399.581 828.5,401C 825.473,401.861 822.806,403.361 820.5,405.5C 818.483,404.826 816.817,403.659 815.5,402C 809.275,402.98 804.608,400.813 801.5,395.5C 800.68,393.026 799.68,390.693 798.5,388.5C 796.919,386.858 796.253,384.858 796.5,382.5C 799.455,381.841 802.455,381.508 805.5,381.5C 805.5,383.167 805.5,384.833 805.5,386.5C 807.833,386.5 810.167,386.5 812.5,386.5C 813.264,383.213 815.097,380.546 818,378.5C 818.082,373.928 820.248,370.928 824.5,369.5C 825.167,369.167 825.833,368.833 826.5,368.5 Z"/></g>
<g><path style="opacity:0.192" fill="#89898a" d="M 708.5,364.5 C 707.469,365.249 706.302,365.915 705,366.5C 704.333,369.167 704.333,371.833 705,374.5C 708.381,379.598 713.215,381.598 719.5,380.5C 724.217,379.994 728.883,379.328 733.5,378.5C 732.909,379.151 732.243,379.818 731.5,380.5C 723.805,381.801 716.139,381.801 708.5,380.5C 706.669,381.929 704.669,382.429 702.5,382C 701.368,377.587 701.201,373.087 702,368.5C 703.026,365.307 705.192,363.974 708.5,364.5 Z"/></g>
<g><path style="opacity:0.11" fill="#070707" d="M 975.5,379.5 C 975.263,380.791 975.596,381.791 976.5,382.5C 977.833,382.5 979.167,382.5 980.5,382.5C 983.167,382.5 985.833,382.5 988.5,382.5C 988.01,380.052 988.843,378.385 991,377.5C 994.013,379.348 996.513,381.682 998.5,384.5C 998.5,385.167 998.5,385.833 998.5,386.5C 998.5,387.167 998.5,387.833 998.5,388.5C 997.427,389.658 996.261,389.658 995,388.5C 992.596,390.693 989.763,392.026 986.5,392.5C 983.721,392.721 981.054,392.388 978.5,391.5C 978.011,390.005 977.345,388.671 976.5,387.5C 976.167,383.5 975.833,383.5 975.5,387.5C 971.874,388.703 968.54,390.37 965.5,392.5C 957.99,393.322 954.324,389.988 954.5,382.5C 958.705,382.283 962.705,381.617 966.5,380.5C 967.161,379.282 967.828,377.949 968.5,376.5C 970.739,377.788 973.072,378.788 975.5,379.5 Z"/></g>
<g><path style="opacity:0.632" fill="#a5a5a5" d="M 398.5,373.5 C 398.5,373.833 398.5,374.167 398.5,374.5C 396.236,377.014 393.57,379.014 390.5,380.5C 379.492,381.259 368.492,381.925 357.5,382.5C 357.918,381.778 358.584,381.278 359.5,381C 368.186,380.832 376.852,380.332 385.5,379.5C 389.735,377.215 394.069,375.215 398.5,373.5 Z"/></g>
<g><path style="opacity:0.3" fill="#a3a4a6" d="M 1002.5,373.5 C 1003.17,373.5 1003.83,373.5 1004.5,373.5C 1005.17,373.5 1005.83,373.5 1006.5,373.5C 1006.85,375.626 1006.85,377.959 1006.5,380.5C 1009.5,380.5 1012.5,380.5 1015.5,380.5C 1011.91,382.098 1008.57,384.098 1005.5,386.5C 1003.17,386.5 1000.83,386.5 998.5,386.5C 998.5,385.833 998.5,385.167 998.5,384.5C 996.983,381.413 996.316,378.079 996.5,374.5C 998.735,374.795 1000.74,374.461 1002.5,373.5 Z"/></g>
<g><path style="opacity:0.548" fill="#404142" d="M 791.5,339.5 C 790.504,339.414 789.671,339.748 789,340.5C 788.333,344.167 788.333,347.833 789,351.5C 791.715,350.931 794.215,349.931 796.5,348.5C 794.859,350.5 793.192,352.5 791.5,354.5C 792.167,360.519 792.834,366.519 793.5,372.5C 792.883,372.389 792.383,372.056 792,371.5C 791.333,377.167 791.333,382.833 792,388.5C 793.511,389.564 793.677,390.897 792.5,392.5C 788.167,388.5 783.833,388.5 779.5,392.5C 779.5,391.833 779.167,391.5 778.5,391.5C 778.253,388.061 778.586,384.728 779.5,381.5C 782.167,381.5 784.833,381.5 787.5,381.5C 787.5,367.5 787.5,353.5 787.5,339.5C 788.961,338.314 790.295,338.314 791.5,339.5 Z"/></g>
<g><path style="opacity:0.275" fill="#4e4e4f" d="M 538.5,381.5 C 538.082,382.222 537.416,382.722 536.5,383C 539.165,385.375 542.165,386.875 545.5,387.5C 542.5,387.5 539.5,387.5 536.5,387.5C 535.929,389.36 535.929,391.027 536.5,392.5C 531.912,392.916 528.912,390.916 527.5,386.5C 530.025,387.64 532.692,388.307 535.5,388.5C 535.617,386.516 534.95,384.85 533.5,383.5C 534.668,381.783 536.335,381.116 538.5,381.5 Z"/></g>
<g><path style="opacity:0.142" fill="#a3a5a6" d="M 975.5,387.5 C 975.833,387.5 976.167,387.5 976.5,387.5C 977.345,388.671 978.011,390.005 978.5,391.5C 979.59,397.613 977.923,402.779 973.5,407C 970.183,407.498 966.85,407.665 963.5,407.5C 962.989,404.972 962.322,402.472 961.5,400C 963.099,397.588 964.432,395.088 965.5,392.5C 968.54,390.37 971.874,388.703 975.5,387.5 Z"/></g>
<g><path style="opacity:0.461" fill="#a5a6a8" d="M 759.5,371.5 C 765.31,370.51 771.31,370.177 777.5,370.5C 777.681,373.397 777.348,376.23 776.5,379C 776.748,380.749 777.748,381.582 779.5,381.5C 778.586,384.728 778.253,388.061 778.5,391.5C 779.167,391.5 779.5,391.833 779.5,392.5C 783.833,388.5 788.167,388.5 792.5,392.5C 793.104,396.29 794.104,399.957 795.5,403.5C 795.333,405.167 795.167,406.833 795,408.5C 793.883,409.949 793.216,411.616 793,413.5C 791.247,414.627 789.413,415.627 787.5,416.5C 784.478,414.312 781.978,411.645 780,408.5C 779.689,407.258 780.189,406.258 781.5,405.5C 779.269,405.113 776.936,404.947 774.5,405C 772.016,402.621 769.182,400.788 766,399.5C 763.579,395.284 764.079,391.617 767.5,388.5C 768.466,386.604 768.799,384.604 768.5,382.5C 770.488,378.533 772.821,374.866 775.5,371.5C 770.167,371.5 764.833,371.5 759.5,371.5 Z"/></g>
<g><path style="opacity:0.287" fill="#a6a6a9" d="M 998.5,388.5 C 998.634,391.768 1000.13,394.102 1003,395.5C 1004.46,405.41 1001.13,413.41 993,419.5C 992.517,420.448 992.351,421.448 992.5,422.5C 988.563,422.793 984.73,422.46 981,421.5C 980.744,418.443 980.244,415.443 979.5,412.5C 980.641,405.41 982.974,398.744 986.5,392.5C 989.763,392.026 992.596,390.693 995,388.5C 996.261,389.658 997.427,389.658 998.5,388.5 Z"/></g>
<g><path style="opacity:0.598" fill="#1aacea" d="M 181.5,434.5 C 180.717,430.854 180.55,427.188 181,423.5C 182.72,422.616 183.886,421.283 184.5,419.5C 204.034,418.732 223.034,415.232 241.5,409C 254.141,403.908 266.474,398.074 278.5,391.5C 277.807,390.482 277.141,389.482 276.5,388.5C 277.5,388.5 278.5,388.5 279.5,388.5C 281.048,389.734 281.715,389.734 281.5,388.5C 281.5,387.833 281.833,387.5 282.5,387.5C 283.791,387.737 284.791,387.404 285.5,386.5C 291.274,384.724 292.941,386.724 290.5,392.5C 276.554,400.811 262.221,408.644 247.5,416C 225.714,423.627 203.714,429.794 181.5,434.5 Z"/></g>
<g><path style="opacity:0.329" fill="#a5a6a8" d="M 590.5,359.5 C 588.197,367.412 585.531,375.079 582.5,382.5C 581.127,382.343 579.793,382.51 578.5,383C 579.815,386.081 580.815,389.247 581.5,392.5C 581.167,394.5 580.833,396.5 580.5,398.5C 586.842,398.334 593.175,398.5 599.5,399C 600.5,400 601.5,401 602.5,402C 606.167,402.333 609.833,402.667 613.5,403C 616.244,404.324 617.577,406.491 617.5,409.5C 625.167,409.5 632.833,409.5 640.5,409.5C 640.33,408.178 640.663,407.011 641.5,406C 643.87,404.815 646.203,403.649 648.5,402.5C 652.85,404.504 657.183,406.171 661.5,407.5C 659.595,407.593 657.762,407.926 656,408.5C 654.684,405.972 653.517,405.972 652.5,408.5C 655.932,408.997 658.932,410.33 661.5,412.5C 661.023,413.478 660.357,414.311 659.5,415C 660.406,416.699 660.739,418.533 660.5,420.5C 656.47,419.306 652.47,417.973 648.5,416.5C 646.457,417.579 645.124,419.246 644.5,421.5C 638.193,422.331 631.859,422.831 625.5,423C 632.853,423.181 639.853,424.681 646.5,427.5C 645.36,432.652 644.194,432.652 643,427.5C 641.475,427.888 639.808,427.888 638,427.5C 636.688,429.658 635.022,429.991 633,428.5C 632.085,429.328 631.419,430.328 631,431.5C 630.549,429.071 629.715,428.904 628.5,431C 632.34,432.64 632.34,434.14 628.5,435.5C 628.863,436.183 629.196,436.85 629.5,437.5C 621.215,437.285 612.881,437.118 604.5,437C 602.884,436.385 601.551,435.385 600.5,434C 593.255,434.512 586.588,432.846 580.5,429C 578.497,427.181 577.164,425.015 576.5,422.5C 571.821,422.666 567.155,422.499 562.5,422C 557.827,414.517 559.827,410.017 568.5,408.5C 562.833,407.833 557.167,407.167 551.5,406.5C 545.825,402.489 540.825,397.823 536.5,392.5C 535.929,391.027 535.929,389.36 536.5,387.5C 539.5,387.5 542.5,387.5 545.5,387.5C 548.184,389.193 550.851,390.86 553.5,392.5C 558.056,394.442 563.056,395.108 568.5,394.5C 568.5,388.833 568.5,383.167 568.5,377.5C 568.597,369.989 567.93,362.656 566.5,355.5C 565.5,355.5 564.5,355.5 563.5,355.5C 562.906,359.776 561.406,363.776 559,367.5C 557.392,372.156 555.892,376.822 554.5,381.5C 550.918,382.266 547.418,382.266 544,381.5C 543.805,375.285 545.305,369.619 548.5,364.5C 547.19,369.743 546.524,375.077 546.5,380.5C 548.591,380.682 550.591,380.348 552.5,379.5C 556.156,371.034 559.323,362.367 562,353.5C 563.066,351.901 564.566,350.901 566.5,350.5C 568.459,358.047 569.626,365.713 570,373.5C 571.115,375 571.948,376.667 572.5,378.5C 575.428,379.484 578.428,379.817 581.5,379.5C 584.504,372.815 587.504,366.148 590.5,359.5 Z M 580.5,413.5 C 586.319,412.347 592.319,412.181 598.5,413C 601.941,415.789 605.941,417.123 610.5,417C 612.412,418.2 613.745,419.867 614.5,422C 616.5,422.333 618.5,422.667 620.5,423C 615.167,423.667 609.833,423.667 604.5,423C 603.5,422 602.5,421 601.5,420C 597.5,419.667 593.5,419.333 589.5,419C 588.139,417.416 587.472,415.582 587.5,413.5C 585.167,413.5 582.833,413.5 580.5,413.5 Z"/></g>
<g><path style="opacity:0.218" fill="#a2a4a5" d="M 901.5,413.5 C 905.437,413.207 909.27,413.54 913,414.5C 916.01,424.824 912.343,428.49 902,425.5C 901.501,421.514 901.334,417.514 901.5,413.5 Z"/></g>
<g><path style="opacity:0.387" fill="#a4a6a8" d="M 950.5,413.5 C 953.937,414.134 957.104,415.467 960,417.5C 960.814,419.902 960.647,422.235 959.5,424.5C 957.746,429.066 955.08,433.066 951.5,436.5C 947.145,438.904 942.478,439.904 937.5,439.5C 937.173,434.786 937.507,430.12 938.5,425.5C 941.192,420.05 945.192,416.05 950.5,413.5 Z"/></g>
<g><path style="opacity:0.36" fill="#a6a8a9" d="M 920.5,423.5 C 929.497,424.324 931.831,428.824 927.5,437C 923.909,437.789 920.409,437.622 917,436.5C 916.5,434.5 916,432.5 915.5,430.5C 916.156,428.547 916.489,426.547 916.5,424.5C 918.099,424.768 919.432,424.434 920.5,423.5 Z"/></g>
<g><path style="opacity:0.305" fill="#a8a8aa" d="M 892.5,427.5 C 902.538,426.546 905.872,430.88 902.5,440.5C 890.429,443.162 887.095,438.829 892.5,427.5 Z"/></g>
<g><path style="opacity:0.352" fill="#a6a7a9" d="M 1048.5,392.5 C 1051.75,395.384 1053.58,399.05 1054,403.5C 1059.5,406.329 1061.66,410.829 1060.5,417C 1060.39,420.035 1059.72,422.869 1058.5,425.5C 1063.13,426.328 1067.8,426.828 1072.5,427C 1074.79,429.492 1077.12,431.992 1079.5,434.5C 1080.49,429.208 1080.83,423.875 1080.5,418.5C 1079.18,418.67 1078.01,418.337 1077,417.5C 1076.33,413.833 1076.33,410.167 1077,406.5C 1078.01,405.663 1079.18,405.33 1080.5,405.5C 1080.92,397.629 1080.26,389.963 1078.5,382.5C 1081.21,382.425 1083.87,382.092 1086.5,381.5C 1086.42,385.215 1086.76,388.881 1087.5,392.5C 1087.67,412.169 1087.5,431.836 1087,451.5C 1086.58,453.615 1085.41,454.448 1083.5,454C 1079.35,449.544 1074.85,445.711 1070,442.5C 1069.52,441.552 1069.35,440.552 1069.5,439.5C 1066.17,439.5 1062.83,439.5 1059.5,439.5C 1059.67,440.822 1059.34,441.989 1058.5,443C 1050.17,443.5 1041.84,443.666 1033.5,443.5C 1033.33,439.154 1033.5,434.821 1034,430.5C 1036.36,428.105 1038.36,425.438 1040,422.5C 1041.67,420.372 1043.83,419.039 1046.5,418.5C 1049.32,415.787 1048.82,413.787 1045,412.5C 1044.67,410.833 1044.33,409.167 1044,407.5C 1041.34,404.853 1039.18,401.853 1037.5,398.5C 1032.95,395.443 1027.95,393.443 1022.5,392.5C 1023.66,390.797 1022.99,390.131 1020.5,390.5C 1019.99,388.488 1019.82,386.488 1020,384.5C 1022.57,383.308 1025.24,382.308 1028,381.5C 1034.52,385.833 1041.36,389.5 1048.5,392.5 Z M 1054.5,428.5 C 1055.04,428.56 1055.38,428.893 1055.5,429.5C 1053.58,430.641 1051.58,430.808 1049.5,430C 1051.38,429.802 1053.05,429.302 1054.5,428.5 Z"/></g>
<g><path style="opacity:0.462" fill="#a6a8aa" d="M 759.5,450.5 C 759.739,448.533 759.406,446.699 758.5,445C 759.99,443.366 761.324,443.699 762.5,446C 762.167,447 761.833,448 761.5,449C 762.536,450.617 763.703,450.784 765,449.5C 766.335,452.224 766.502,454.89 765.5,457.5C 767.597,457.003 769.43,456.67 771,456.5C 772.267,454.576 772.267,452.91 771,451.5C 770.667,451.833 770.333,452.167 770,452.5C 769.355,451.354 768.522,450.354 767.5,449.5C 770.561,449.36 773.561,449.027 776.5,448.5C 779.048,446.781 778.715,445.448 775.5,444.5C 776.391,443.41 777.391,443.41 778.5,444.5C 779.167,443.5 779.833,442.5 780.5,441.5C 781.086,441.709 781.586,442.043 782,442.5C 781.805,440.874 781.805,439.207 782,437.5C 783.263,439.797 785.097,440.63 787.5,440C 786.421,439.044 785.255,438.211 784,437.5C 783.719,435.095 784.385,435.095 786,437.5C 789.514,434.254 793.181,433.921 797,436.5C 798.824,435.251 798.657,434.085 796.5,433C 797.044,432.283 797.711,431.783 798.5,431.5C 799.507,432.828 800.84,433.828 802.5,434.5C 806.734,434.182 811.067,434.182 815.5,434.5C 815.692,429.974 818.025,427.308 822.5,426.5C 824.397,426.728 825.73,427.728 826.5,429.5C 831.467,430.662 836.467,430.829 841.5,430C 842.818,428.092 844.652,427.258 847,427.5C 849.812,428.138 852.479,429.138 855,430.5C 856.167,430.333 857.333,430.167 858.5,430C 860.167,427.667 862.167,425.667 864.5,424C 868.95,422.686 873.283,421.186 877.5,419.5C 882.771,419.437 885.438,422.104 885.5,427.5C 885.65,431.825 883.65,433.825 879.5,433.5C 879.67,434.822 879.337,435.989 878.5,437C 871.99,437.033 865.99,437.867 860.5,439.5C 859.391,440.965 859.891,441.965 862,442.5C 862.167,444 862.333,445.5 862.5,447C 861.532,451.116 860.699,455.283 860,459.5C 857.411,460.337 855.578,462.003 854.5,464.5C 851.59,464.848 849.59,466.348 848.5,469C 843.931,469.266 839.597,470.266 835.5,472C 830.287,478.504 823.62,480.338 815.5,477.5C 813.682,469.784 816.682,465.784 824.5,465.5C 827.002,461.141 828.836,456.474 830,451.5C 831.214,449.951 832.714,448.785 834.5,448C 838.858,447.614 842.858,446.28 846.5,444C 842.833,443.333 839.167,443.333 835.5,444C 833.821,447.297 831.154,448.297 827.5,447C 826.929,445.795 826.262,444.628 825.5,443.5C 824.509,445.323 823.176,446.823 821.5,448C 813.548,449.374 805.548,450.374 797.5,451C 795.989,452.615 794.656,452.615 793.5,451C 791.833,450.333 790.167,450.333 788.5,451C 791.356,453.43 794.523,455.597 798,457.5C 799.48,465.466 796.147,470.133 788,471.5C 785.003,470.296 781.836,469.463 778.5,469C 777.663,467.989 777.33,466.822 777.5,465.5C 772.174,464.338 767.174,462.338 762.5,459.5C 760.367,456.872 760.034,454.039 761.5,451C 760.906,450.536 760.239,450.369 759.5,450.5 Z"/></g>
<g><path style="opacity:0.286" fill="#a7a8ab" d="M 661.5,407.5 C 661.611,408.117 661.944,408.617 662.5,409C 673.515,409.168 684.515,409.668 695.5,410.5C 697.295,412.703 699.629,413.869 702.5,414C 703.701,414.903 704.535,416.069 705,417.5C 705.272,414.568 706.438,412.068 708.5,410C 712.152,409.501 715.818,409.335 719.5,409.5C 720.481,414.129 720.648,418.796 720,423.5C 713.925,421.802 708.092,422.302 702.5,425C 706.313,426.262 710.313,426.929 714.5,427C 715.973,427.71 716.64,428.876 716.5,430.5C 723.178,429.965 729.678,430.631 736,432.5C 739.482,431.227 742.649,429.393 745.5,427C 748.5,426.333 751.5,426.333 754.5,427C 755.447,429.882 757.447,431.048 760.5,430.5C 763.688,429.161 767.022,428.661 770.5,429C 771.406,430.699 771.739,432.533 771.5,434.5C 774.659,434.519 777.326,433.352 779.5,431C 786.014,430.18 792.347,430.347 798.5,431.5C 797.711,431.783 797.044,432.283 796.5,433C 798.657,434.085 798.824,435.251 797,436.5C 793.181,433.921 789.514,434.254 786,437.5C 784.385,435.095 783.719,435.095 784,437.5C 785.255,438.211 786.421,439.044 787.5,440C 785.097,440.63 783.263,439.797 782,437.5C 781.805,439.207 781.805,440.874 782,442.5C 781.586,442.043 781.086,441.709 780.5,441.5C 779.833,442.5 779.167,443.5 778.5,444.5C 777.391,443.41 776.391,443.41 775.5,444.5C 778.715,445.448 779.048,446.781 776.5,448.5C 773.561,449.027 770.561,449.36 767.5,449.5C 768.522,450.354 769.355,451.354 770,452.5C 770.333,452.167 770.667,451.833 771,451.5C 772.267,452.91 772.267,454.576 771,456.5C 769.43,456.67 767.597,457.003 765.5,457.5C 766.502,454.89 766.335,452.224 765,449.5C 763.703,450.784 762.536,450.617 761.5,449C 761.833,448 762.167,447 762.5,446C 761.324,443.699 759.99,443.366 758.5,445C 759.406,446.699 759.739,448.533 759.5,450.5C 753.897,449.615 748.897,450.782 744.5,454C 740.833,454.667 737.167,454.667 733.5,454C 729.106,449.92 724.273,449.42 719,452.5C 716.455,451.262 713.955,449.929 711.5,448.5C 709.402,449.484 707.402,449.151 705.5,447.5C 704.452,448.383 703.285,449.05 702,449.5C 697.819,448.76 693.652,447.926 689.5,447C 688.643,446.311 687.977,445.478 687.5,444.5C 674.513,443.667 661.513,443.167 648.5,443C 647.5,442 646.5,441 645.5,440C 640.062,439.329 634.728,438.496 629.5,437.5C 629.196,436.85 628.863,436.183 628.5,435.5C 632.34,434.14 632.34,432.64 628.5,431C 629.715,428.904 630.549,429.071 631,431.5C 631.419,430.328 632.085,429.328 633,428.5C 635.022,429.991 636.688,429.658 638,427.5C 639.808,427.888 641.475,427.888 643,427.5C 644.194,432.652 645.36,432.652 646.5,427.5C 648.048,427.821 648.715,428.821 648.5,430.5C 656.86,430.831 665.193,430.498 673.5,429.5C 671.146,427.754 670.146,425.421 670.5,422.5C 666.671,423.069 663.337,422.402 660.5,420.5C 660.739,418.533 660.406,416.699 659.5,415C 660.357,414.311 661.023,413.478 661.5,412.5C 658.932,410.33 655.932,408.997 652.5,408.5C 653.517,405.972 654.684,405.972 656,408.5C 657.762,407.926 659.595,407.593 661.5,407.5 Z"/></g>
<g><path style="opacity:0.403" fill="#a4a6a8" d="M 802.5,462.5 C 814.109,460.242 817.442,464.409 812.5,475C 800.977,477.634 797.643,473.467 802.5,462.5 Z"/></g>
</svg>
