<?xml version="1.0" encoding="UTF-8"?>
<!DOCTYPE svg PUBLIC "-//W3C//DTD SVG 1.1//EN" "http://www.w3.org/Graphics/SVG/1.1/DTD/svg11.dtd">
<svg xmlns="http://www.w3.org/2000/svg" version="1.1" width="1280px" height="473px" style="shape-rendering:geometricPrecision; text-rendering:geometricPrecision; image-rendering:optimizeQuality; fill-rule:evenodd; clip-rule:evenodd" xmlns:xlink="http://www.w3.org/1999/xlink">
<g><path style="opacity:0.998" fill="#fcbe45" d="M 257.5,161.5 C 250.292,174.717 240.626,185.884 228.5,195C 212.789,203.118 196.123,205.785 178.5,203C 151.53,197.894 124.53,192.894 97.5,188C 81.518,186.942 65.518,186.275 49.5,186C 34.8932,183.951 29.3932,175.784 33,161.5C 36.6015,154.185 40.1015,146.852 43.5,139.5C 75.2778,96.2814 118.111,73.6148 172,71.5C 178.947,71.3067 185.78,71.9733 192.5,73.5C 195.27,69.3954 198.937,66.3954 203.5,64.5C 205.019,61.9561 206.352,59.2895 207.5,56.5C 210.4,53.8005 213.567,51.4672 217,49.5C 219.198,43.0318 223.531,39.0318 230,37.5C 234.336,37.4062 236.503,39.5729 236.5,44C 236.164,47.0382 235.331,49.8715 234,52.5C 234.465,59.077 232.965,65.077 229.5,70.5C 231.201,75.6949 230.535,80.5282 227.5,85C 241.768,95.5974 252.268,109.097 259,125.5C 262.649,137.829 262.149,149.829 257.5,161.5 Z"/></g>
<g><path style="opacity:0.994" fill="#a30515" d="M 303.5,73.5 C 305.423,76.6032 307.59,79.6032 310,82.5C 315.307,94.1946 315.974,106.195 312,118.5C 303.13,146.255 289.63,171.255 271.5,193.5C 283.062,175.304 289.728,155.304 291.5,133.5C 290.568,125.695 289.068,118.028 287,110.5C 283.34,102.868 279.674,95.2015 276,87.5C 275.023,71.887 282.19,66.0537 297.5,70C 299.879,70.7162 301.879,71.8828 303.5,73.5 Z"/></g>
<g><path style="opacity:0.998" fill="#e01567" d="M 303.5,73.5 C 331.14,87.1397 351.806,107.806 365.5,135.5C 365.631,136.239 365.464,136.906 365,137.5C 361.142,130.975 355.975,125.808 349.5,122C 340.128,120.768 332.961,124.268 328,132.5C 320.77,146.884 312.437,160.55 303,173.5C 287.333,191.833 271.667,210.167 256,228.5C 247.187,239.792 240.187,252.126 235,265.5C 229.8,288.478 234.3,309.311 248.5,328C 247.584,328.278 246.918,328.778 246.5,329.5C 234.662,315.747 228.662,299.581 228.5,281C 229.257,259.768 235.757,240.601 248,223.5C 256.079,213.6 263.912,203.6 271.5,193.5C 289.63,171.255 303.13,146.255 312,118.5C 315.974,106.195 315.307,94.1946 310,82.5C 307.59,79.6032 305.423,76.6032 303.5,73.5 Z"/></g>
<g><path style="opacity:0.992" fill="#4618ab" d="M 953.5,93.5 C 973.746,92.678 991.58,98.678 1007,111.5C 1007.83,114 1008.67,116.5 1009.5,119C 1008.35,138.802 1008.18,158.636 1009,178.5C 1029.56,160.32 1052.39,156.82 1077.5,168C 1087.58,174.076 1094.75,182.576 1099,193.5C 1100.11,207.462 1100.61,221.462 1100.5,235.5C 1100.33,247.5 1100.17,259.5 1100,271.5C 1096.8,288.372 1087.3,300.205 1071.5,307C 1052.76,314.063 1034.76,312.729 1017.5,303C 1013.63,299.466 1010.13,295.633 1007,291.5C 991.522,304.332 973.688,309.999 953.5,308.5C 953.5,236.833 953.5,165.167 953.5,93.5 Z M 1025.5,202.5 C 1038.72,201.215 1045.55,207.215 1046,220.5C 1046.78,232.865 1046.45,245.198 1045,257.5C 1042.53,265.307 1037.19,269.307 1029,269.5C 1019.95,269.116 1013.62,264.782 1010,256.5C 1009.33,243.167 1009.33,229.833 1010,216.5C 1013.49,209.842 1018.65,205.175 1025.5,202.5 Z"/></g>
<g><path style="opacity:0.999" fill="#f23d95" d="M 365.5,135.5 C 368.453,139.8 370.953,144.466 373,149.5C 378.734,165.67 382.234,182.337 383.5,199.5C 389.133,199.864 394.3,201.53 399,204.5C 400.112,206.39 400.946,208.39 401.5,210.5C 398.935,217.576 394.602,223.41 388.5,228C 395.463,227.464 401.629,229.297 407,233.5C 407.841,237.12 407.174,240.454 405,243.5C 399.149,249.831 392.649,255.331 385.5,260C 388.595,260.714 391.595,261.714 394.5,263C 398.301,266.612 398.468,270.445 395,274.5C 385.481,284.358 374.815,292.691 363,299.5C 344.648,332.863 316.481,348.696 278.5,347C 265.66,345.009 254.993,339.176 246.5,329.5C 246.918,328.778 247.584,328.278 248.5,328C 234.3,309.311 229.8,288.478 235,265.5C 240.187,252.126 247.187,239.792 256,228.5C 271.667,210.167 287.333,191.833 303,173.5C 312.437,160.55 320.77,146.884 328,132.5C 332.961,124.268 340.128,120.768 349.5,122C 355.975,125.808 361.142,130.975 365,137.5C 365.464,136.906 365.631,136.239 365.5,135.5 Z"/></g>
<g><path style="opacity:0.995" fill="#fa9838" d="M 43.5,139.5 C 40.1015,146.852 36.6015,154.185 33,161.5C 29.3932,175.784 34.8932,183.951 49.5,186C 65.518,186.275 81.518,186.942 97.5,188C 124.53,192.894 151.53,197.894 178.5,203C 196.123,205.785 212.789,203.118 228.5,195C 240.626,185.884 250.292,174.717 257.5,161.5C 256.964,164.555 256.131,167.555 255,170.5C 237.987,198.913 212.82,212.58 179.5,211.5C 168.332,211.167 157.332,209.667 146.5,207C 138.53,205.978 130.53,205.478 122.5,205.5C 123.952,204.698 125.618,204.198 127.5,204C 102.401,201.524 77.4007,202.191 52.5,206C 42.9004,208.633 33.9004,212.633 25.5,218C 20.0808,223.362 16.0808,229.528 13.5,236.5C 12.4024,200.454 22.4024,168.12 43.5,139.5 Z"/></g>
<g><path style="opacity:0.995" fill="#4618ab" d="M 521.5,161.5 C 546.035,158.908 568.369,164.408 588.5,178C 598.437,186.274 604.604,196.774 607,209.5C 607.667,221.833 607.667,234.167 607,246.5C 575.907,247.496 544.74,247.829 513.5,247.5C 512.191,263.693 519.691,271.693 536,271.5C 542.038,271.202 547.871,270.035 553.5,268C 557.048,265.409 558.382,261.909 557.5,257.5C 575.981,257.093 591.648,263.259 604.5,276C 601.59,283.746 596.923,290.246 590.5,295.5C 574.241,306.779 556.074,312.113 536,311.5C 471.098,309.543 445.765,276.543 460,212.5C 465.849,188.982 480.349,173.482 503.5,166C 509.601,164.382 515.601,162.882 521.5,161.5 Z M 531.5,199.5 C 538.285,198.997 544.619,200.664 550.5,204.5C 553.355,208.73 555.021,213.397 555.5,218.5C 541.833,218.5 528.167,218.5 514.5,218.5C 515.343,207.665 521.009,201.332 531.5,199.5 Z"/></g>
<g><path style="opacity:0.994" fill="#4618ab" d="M 710.5,161.5 C 726.596,159.277 741.596,162.11 755.5,170C 763.612,176.727 768.779,185.227 771,195.5C 771.5,233.165 771.667,270.832 771.5,308.5C 753.5,308.5 735.5,308.5 717.5,308.5C 717.667,279.831 717.5,251.165 717,222.5C 714.799,207.972 706.632,202.805 692.5,207C 685.734,210.096 681.568,215.263 680,222.5C 679.5,251.165 679.333,279.831 679.5,308.5C 661.167,308.5 642.833,308.5 624.5,308.5C 624.5,260.167 624.5,211.833 624.5,163.5C 644.576,163.63 662.076,170.296 677,183.5C 685.113,171.526 696.279,164.193 710.5,161.5 Z"/></g>
<g><path style="opacity:0.995" fill="#4618ab" d="M 850.5,161.5 C 876.456,158.422 899.79,164.589 920.5,180C 926.941,186.445 931.774,193.945 935,202.5C 936.396,217.456 936.896,232.456 936.5,247.5C 905.5,247.5 874.5,247.5 843.5,247.5C 842.191,263.693 849.691,271.693 866,271.5C 870.489,270.901 874.989,270.401 879.5,270C 885.647,268.026 888.314,263.859 887.5,257.5C 905.985,257.095 921.652,263.262 934.5,276C 927.366,291.912 915.366,302.245 898.5,307C 868.212,315.416 839.212,312.416 811.5,298C 797.995,289.164 790.495,276.664 789,260.5C 788.147,243.804 788.48,227.137 790,210.5C 795.777,190.391 808.277,176.224 827.5,168C 835.193,165.485 842.86,163.319 850.5,161.5 Z M 861.5,199.5 C 867.941,199.13 873.941,200.797 879.5,204.5C 882.996,208.47 884.663,213.136 884.5,218.5C 870.817,218.833 857.15,218.499 843.5,217.5C 845.276,207.057 851.276,201.057 861.5,199.5 Z"/></g>
<g><path style="opacity:0.994" fill="#4618ab" d="M 1161.5,161.5 C 1181.41,158.626 1197.91,164.626 1211,179.5C 1226.99,168.457 1244.83,163.123 1264.5,163.5C 1264.5,211.833 1264.5,260.167 1264.5,308.5C 1244.5,310.046 1226.66,304.712 1211,292.5C 1190.3,312.214 1166.8,316.381 1140.5,305C 1127.94,297.735 1120.44,286.902 1118,272.5C 1117.33,250.5 1117.33,228.5 1118,206.5C 1121.87,181.127 1136.37,166.127 1161.5,161.5 Z M 1187.5,202.5 C 1194.75,202.748 1200.92,205.414 1206,210.5C 1207,212.5 1208,214.5 1209,216.5C 1209.67,229.167 1209.67,241.833 1209,254.5C 1203.94,265.443 1195.44,270.277 1183.5,269C 1178.57,267.073 1175.41,263.573 1174,258.5C 1173.33,243.833 1173.33,229.167 1174,214.5C 1176.03,207.59 1180.53,203.59 1187.5,202.5 Z"/></g>
<g><path style="opacity:0.993" fill="#fb5b22" d="M 122.5,205.5 C 85.0382,204.466 57.8715,220.466 41,253.5C 33.6217,261.062 25.955,261.395 18,254.5C 14.9308,248.89 13.4308,242.89 13.5,236.5C 16.0808,229.528 20.0808,223.362 25.5,218C 33.9004,212.633 42.9004,208.633 52.5,206C 77.4007,202.191 102.401,201.524 127.5,204C 125.618,204.198 123.952,204.698 122.5,205.5 Z"/></g>
<g><path style="opacity:0.999" fill="#7df3c2" d="M 111.5,233.5 C 133.693,232.237 152.859,239.237 169,254.5C 179.128,267.888 186.795,282.555 192,298.5C 198.074,317.634 204.407,336.634 211,355.5C 219.468,373.769 228.468,391.769 238,409.5C 240.496,421 235.996,428.166 224.5,431C 220.168,431.583 215.835,432.083 211.5,432.5C 211.5,433.5 211.5,434.5 211.5,435.5C 154.284,430.847 109.951,404.68 78.5,357C 73.8557,357.163 69.189,357.663 64.5,358.5C 54.6372,358.135 51.1372,353.135 54,343.5C 56.913,336.389 60.7463,329.889 65.5,324C 59.318,299.607 62.818,276.774 76,255.5C 84.9386,243.45 96.7719,236.116 111.5,233.5 Z"/></g>
<g><path style="opacity:0.996" fill="#4dd59e" d="M 184.5,265.5 C 190.687,275.651 196.353,285.984 201.5,296.5C 203.777,304.333 206.444,311.999 209.5,319.5C 220.759,351.201 238.425,378.701 262.5,402C 272.712,410.027 284.046,413.193 296.5,411.5C 277.016,424.723 255.349,432.556 231.5,435C 224.842,435.5 218.175,435.666 211.5,435.5C 211.5,434.5 211.5,433.5 211.5,432.5C 215.835,432.083 220.168,431.583 224.5,431C 235.996,428.166 240.496,421 238,409.5C 228.468,391.769 219.468,373.769 211,355.5C 204.407,336.634 198.074,317.634 192,298.5C 186.795,282.555 179.128,267.888 169,254.5C 152.859,239.237 133.693,232.237 111.5,233.5C 141.961,229.778 166.294,240.445 184.5,265.5 Z"/></g>
<g><path style="opacity:0.994" fill="#7ef0c1" d="M 184.5,265.5 C 191.198,266.207 197.865,267.373 204.5,269C 213.348,270.882 216.182,276.049 213,284.5C 209.636,289.029 205.803,293.029 201.5,296.5C 196.353,285.984 190.687,275.651 184.5,265.5 Z"/></g>
<g><path style="opacity:0.99" fill="#1e9075" d="M 209.5,319.5 C 219.258,340.436 233.924,357.27 253.5,370C 267.471,377.531 282.471,380.531 298.5,379C 308.991,382.177 312.491,389.01 309,399.5C 306.262,405.073 302.095,409.073 296.5,411.5C 284.046,413.193 272.712,410.027 262.5,402C 238.425,378.701 220.759,351.201 209.5,319.5 Z"/></g>
</svg>
