<?xml version="1.0" encoding="UTF-8"?>
<!DOCTYPE svg PUBLIC "-//W3C//DTD SVG 1.1//EN" "http://www.w3.org/Graphics/SVG/1.1/DTD/svg11.dtd">
<svg xmlns="http://www.w3.org/2000/svg" version="1.1" width="1280px" height="473px" style="shape-rendering:geometricPrecision; text-rendering:geometricPrecision; image-rendering:optimizeQuality; fill-rule:evenodd; clip-rule:evenodd" xmlns:xlink="http://www.w3.org/1999/xlink">
<g><path style="opacity:0.986" fill="#192652" d="M 133.5,93.5 C 138.167,93.5 142.833,93.5 147.5,93.5C 147.5,174.167 147.5,254.833 147.5,335.5C 132.943,335.626 119.109,332.626 106,326.5C 102.075,328.213 98.2417,330.046 94.5,332C 90.6621,333.474 86.6621,334.474 82.5,335C 71.5,335.667 60.5,335.667 49.5,335C 45.7511,334.292 42.0844,333.292 38.5,332C 37.3895,329.263 37.2228,326.429 38,323.5C 46.5012,311.664 53.0012,298.831 57.5,285C 37.9097,255.792 31.4097,223.625 38,188.5C 48.3008,146.858 73.1341,117.358 112.5,100C 119.664,97.7527 126.664,95.5861 133.5,93.5 Z"/></g>
<g><path style="opacity:0.96" fill="#26cf5e" d="M 167.5,93.5 C 179.669,93.0833 191.336,95.25 202.5,100C 251.279,122.611 276.612,160.778 278.5,214.5C 278.201,253.929 262.867,286.095 232.5,311C 213.456,326.181 191.789,334.347 167.5,335.5C 167.334,326.494 167.5,317.494 168,308.5C 218.815,297.839 246.648,266.506 251.5,214.5C 246.059,163.29 218.226,131.957 168,120.5C 167.5,111.506 167.334,102.506 167.5,93.5 Z"/></g>
<g><path style="opacity:0.966" fill="#192552" d="M 400.5,141.5 C 444.783,137.643 471.617,157.309 481,200.5C 485.016,227.541 479.016,251.875 463,273.5C 443.751,292.554 420.918,298.388 394.5,291C 390.163,289.812 386.163,287.979 382.5,285.5C 381.667,307.492 381.167,329.492 381,351.5C 369.91,352.653 358.743,352.82 347.5,352C 347,351.5 346.5,351 346,350.5C 345.333,282.5 345.333,214.5 346,146.5C 350.918,145.195 356.085,144.529 361.5,144.5C 366.5,144.667 371.5,144.833 376.5,145C 377.113,147.147 377.779,149.314 378.5,151.5C 385.174,146.492 392.508,143.159 400.5,141.5 Z M 401.5,174.5 C 424.889,172.106 438.722,182.439 443,205.5C 445.748,221.283 443.081,235.949 435,249.5C 425.841,260.102 414.341,263.602 400.5,260C 390.204,255.702 383.371,248.202 380,237.5C 375.584,219.855 377.251,202.855 385,186.5C 389.308,180.668 394.808,176.668 401.5,174.5 Z"/></g>
<g><path style="opacity:0.969" fill="#1a2652" d="M 536.5,141.5 C 547.505,141.333 558.505,141.5 569.5,142C 597.427,146.259 612.594,162.426 615,190.5C 615.667,222.833 615.667,255.167 615,287.5C 614.5,288 614,288.5 613.5,289C 603.833,289.667 594.167,289.667 584.5,289C 583.695,284.251 583.195,279.418 583,274.5C 570.952,288.209 555.619,294.542 537,293.5C 510.71,294.393 494.043,282.393 487,257.5C 483.61,234.11 492.443,217.276 513.5,207C 518.833,205.333 524.167,203.667 529.5,202C 546.145,198.506 562.811,195.339 579.5,192.5C 575.807,179.632 567.14,173.632 553.5,174.5C 545.746,174.463 538.746,176.63 532.5,181C 528.898,185.328 525.564,189.828 522.5,194.5C 512.397,191.287 502.397,187.954 492.5,184.5C 492.069,183.707 491.735,182.873 491.5,182C 498.859,159.798 513.859,146.298 536.5,141.5 Z M 577.5,223.5 C 578.649,223.791 579.316,224.624 579.5,226C 577.044,253.715 562.044,266.048 534.5,263C 524.524,260.12 520.691,253.62 523,243.5C 524.833,240.333 527.333,237.833 530.5,236C 545.156,229.745 560.489,226.078 576.5,225C 577.056,224.617 577.389,224.117 577.5,223.5 Z"/></g>
<g><path style="opacity:0.975" fill="#192652" d="M 822.5,141.5 C 843.828,138.099 860.995,144.766 874,161.5C 882.31,150.763 893.144,144.263 906.5,142C 936.742,137.354 956.242,149.521 965,178.5C 965.5,215.498 965.667,252.498 965.5,289.5C 953.919,289.821 942.419,289.488 931,288.5C 930.667,256.5 930.333,224.5 930,192.5C 923.07,175.041 910.904,170.207 893.5,178C 887.115,183.009 883.448,189.509 882.5,197.5C 881.5,228.159 881.167,258.826 881.5,289.5C 869.919,289.821 858.419,289.488 847,288.5C 846.667,257.5 846.333,226.5 846,195.5C 841.633,177.685 830.466,171.185 812.5,176C 803.143,181.875 798.31,190.375 798,201.5C 797.667,230.5 797.333,259.5 797,288.5C 785.91,289.653 774.743,289.82 763.5,289C 763,288.5 762.5,288 762,287.5C 761.333,240.5 761.333,193.5 762,146.5C 762.5,146 763,145.5 763.5,145C 773.494,144.5 783.494,144.334 793.5,144.5C 793.334,148.514 793.501,152.514 794,156.5C 802.245,148.963 811.745,143.963 822.5,141.5 Z"/></g>
<g><path style="opacity:0.971" fill="#192652" d="M 1031.5,141.5 C 1069.82,135.645 1096.15,150.479 1110.5,186C 1113.25,199.928 1114.25,214.095 1113.5,228.5C 1080.17,228.5 1046.83,228.5 1013.5,228.5C 1016.83,249.673 1029.17,260.173 1050.5,260C 1062.66,258.005 1071.49,251.505 1077,240.5C 1077.89,239.919 1078.89,239.585 1080,239.5C 1090.44,242.818 1100.94,245.818 1111.5,248.5C 1111.7,251.941 1111.2,255.274 1110,258.5C 1094.53,283.323 1072.03,295.157 1042.5,294C 1006.22,290.312 984.056,270.812 976,235.5C 971.188,209.292 976.521,185.625 992,164.5C 1002.81,152.523 1015.97,144.856 1031.5,141.5 Z M 1043.5,173.5 C 1062.88,171.904 1073.88,180.57 1076.5,199.5C 1055.49,199.833 1034.49,199.5 1013.5,198.5C 1016.48,191.684 1020.48,185.517 1025.5,180C 1031.02,176.295 1037.02,174.128 1043.5,173.5 Z"/></g>
<g><path style="opacity:0.972" fill="#192652" d="M 1165.5,141.5 C 1178.21,141.126 1190.88,141.626 1203.5,143C 1221.35,147.857 1233.85,158.691 1241,175.5C 1241.5,179.486 1241.67,183.486 1241.5,187.5C 1235,188.102 1228.66,189.268 1222.5,191C 1217.19,191.999 1211.85,192.332 1206.5,192C 1205.07,185.157 1201.41,179.824 1195.5,176C 1190.02,174.705 1184.52,173.538 1179,172.5C 1174.45,173.43 1169.95,174.597 1165.5,176C 1160.85,178.942 1159.35,183.109 1161,188.5C 1162.52,190.348 1164.35,191.848 1166.5,193C 1182.08,197.859 1197.75,202.526 1213.5,207C 1218.94,209.602 1224.27,212.436 1229.5,215.5C 1234.25,219.415 1238.08,224.081 1241,229.5C 1248.63,260.111 1237.8,280.611 1208.5,291C 1189.96,296.009 1171.62,295.343 1153.5,289C 1144.26,285.097 1136.1,279.597 1129,272.5C 1123.63,265.418 1120.79,257.418 1120.5,248.5C 1131.06,245.819 1141.56,242.819 1152,239.5C 1152.83,239.667 1153.67,239.833 1154.5,240C 1156.93,245.619 1160.26,250.619 1164.5,255C 1170.99,259.495 1178.15,261.995 1186,262.5C 1190.25,262.039 1194.41,261.206 1198.5,260C 1204.4,256.353 1207.24,251.187 1207,244.5C 1205.5,241.667 1203.33,239.5 1200.5,238C 1184.24,232.802 1167.91,227.802 1151.5,223C 1128.92,214.403 1120.08,198.236 1125,174.5C 1128.47,163.354 1135.31,154.854 1145.5,149C 1151.91,145.575 1158.57,143.075 1165.5,141.5 Z"/></g>
<g><path style="opacity:0.969" fill="#192653" d="M 612.5,144.5 C 624.081,144.179 635.581,144.512 647,145.5C 660.089,176.838 672.422,208.505 684,240.5C 696.654,208.875 708.987,177.209 721,145.5C 732.09,144.347 743.257,144.18 754.5,145C 755.578,145.674 756.245,146.674 756.5,148C 731.289,212.338 706.455,276.838 682,341.5C 680.839,345.321 679.006,348.821 676.5,352C 666.256,352.819 656.09,352.652 646,351.5C 645.333,348.833 645.333,346.167 646,343.5C 653.32,324.774 660.154,305.774 666.5,286.5C 648.308,240.263 629.641,194.096 610.5,148C 610.862,146.566 611.528,145.399 612.5,144.5 Z"/></g>
<g><path style="opacity:0.767" fill="#1c2653" d="M 1073.5,333.5 C 1077.47,334.746 1081.47,334.746 1085.5,333.5C 1088.49,333.717 1091.15,334.717 1093.5,336.5C 1104.2,330.67 1111.37,333.337 1115,344.5C 1115.67,352.167 1115.67,359.833 1115,367.5C 1112.87,370.458 1110.21,371.124 1107,369.5C 1105.89,361.248 1105.06,352.915 1104.5,344.5C 1103.45,343.617 1102.29,342.95 1101,342.5C 1099.67,343.799 1098.34,345.132 1097,346.5C 1096.67,354.167 1096.33,361.833 1096,369.5C 1093.41,370.982 1091.07,370.648 1089,368.5C 1088.67,361.167 1088.33,353.833 1088,346.5C 1085.9,341.689 1083.23,341.355 1080,345.5C 1079.67,353.167 1079.33,360.833 1079,368.5C 1075.66,371.299 1072.66,370.966 1070,367.5C 1069.33,356.833 1069.33,346.167 1070,335.5C 1071.3,334.915 1072.47,334.249 1073.5,333.5 Z"/></g>
<g><path style="opacity:0.902" fill="#1c2753" d="M 768.5,323.5 C 776.174,323.334 783.841,323.5 791.5,324C 799.27,327.126 803.103,332.96 803,341.5C 804.709,337.221 807.876,334.721 812.5,334C 819.148,332.62 824.981,334.12 830,338.5C 830.167,335.667 831.667,334.167 834.5,334C 837.531,333.505 840.531,333.671 843.5,334.5C 845.062,339.805 846.562,345.139 848,350.5C 849.333,345.833 850.667,341.167 852,336.5C 854.642,333.971 857.808,332.971 861.5,333.5C 861.26,330.421 861.593,327.421 862.5,324.5C 874.486,323.334 886.486,323.167 898.5,324C 899.72,325.525 900.387,327.359 900.5,329.5C 900.333,331.167 900.167,332.833 900,334.5C 895.934,335.464 891.767,335.797 887.5,335.5C 887.667,346.172 887.5,356.839 887,367.5C 885.872,369.99 883.872,370.99 881,370.5C 878.648,370.695 876.648,370.028 875,368.5C 874.5,357.505 874.333,346.505 874.5,335.5C 871.833,335.5 869.167,335.5 866.5,335.5C 862.619,347.899 858.452,360.232 854,372.5C 852.81,375.2 850.977,377.367 848.5,379C 843.833,379.667 839.167,379.667 834.5,379C 833.643,378.311 832.977,377.478 832.5,376.5C 833.432,374.205 834.265,371.871 835,369.5C 837.147,368.887 839.314,368.221 841.5,367.5C 837.693,359.148 834.527,350.481 832,341.5C 831.82,351.077 831.32,360.577 830.5,370C 826.901,370.957 823.568,370.457 820.5,368.5C 805.611,373.302 799.444,367.968 802,352.5C 803.5,351 805,349.5 806.5,348C 804.899,347.727 803.399,347.227 802,346.5C 797.275,354.776 790.108,358.11 780.5,356.5C 780.666,360.514 780.499,364.514 780,368.5C 776.817,370.523 773.317,371.023 769.5,370C 769,369.5 768.5,369 768,368.5C 767.184,353.426 767.351,338.426 768.5,323.5 Z M 780.5,335.5 C 784.588,335.019 787.588,336.519 789.5,340C 787.833,343.965 784.833,345.465 780.5,344.5C 780.5,341.5 780.5,338.5 780.5,335.5 Z M 816.5,344.5 C 817.376,344.369 818.043,344.702 818.5,345.5C 817.277,346.614 815.944,346.781 814.5,346C 815.416,345.722 816.082,345.222 816.5,344.5 Z M 815.5,356.5 C 817.355,356.272 818.188,356.939 818,358.5C 815.192,359.86 814.359,359.193 815.5,356.5 Z"/></g>
<g><path style="opacity:0.851" fill="#1c2752" d="M 906.5,333.5 C 912.696,332.812 918.362,334.145 923.5,337.5C 924.243,338.908 925.077,340.241 926,341.5C 926.667,350.5 926.667,359.5 926,368.5C 922.067,371.099 918.067,371.099 914,368.5C 905.714,372.583 899.381,370.583 895,362.5C 893.061,356.156 894.894,351.323 900.5,348C 896.718,347.889 895.218,346.056 896,342.5C 897.875,337.448 901.375,334.448 906.5,333.5 Z M 910.5,344.5 C 911.376,344.369 912.043,344.702 912.5,345.5C 910.192,346.873 909.525,346.54 910.5,344.5 Z M 910.5,356.5 C 914.009,357.153 913.676,358.153 909.5,359.5C 909.167,359.167 908.833,358.833 908.5,358.5C 909.243,357.818 909.909,357.151 910.5,356.5 Z"/></g>
<g><path style="opacity:0.843" fill="#1c2752" d="M 929.5,323.5 C 933.182,323.335 936.848,323.501 940.5,324C 941.456,327.394 941.789,330.894 941.5,334.5C 957.904,332.573 964.904,339.907 962.5,356.5C 964.527,356.662 966.527,356.495 968.5,356C 964.374,353.698 962.707,350.198 963.5,345.5C 964.088,336.766 968.921,332.766 978,333.5C 987.944,333.12 992.777,337.62 992.5,347C 991.167,347.333 989.833,347.667 988.5,348C 995.112,354.594 995.112,361.261 988.5,368C 977.078,373.384 968.078,370.884 961.5,360.5C 960.014,365.151 957.014,368.318 952.5,370C 948.556,370.99 944.889,370.49 941.5,368.5C 937.3,371.136 933.133,371.136 929,368.5C 928.184,353.426 928.351,338.426 929.5,323.5 Z M 942.5,346.5 C 948.666,345.814 950.833,348.481 949,354.5C 947.676,358.597 945.51,359.264 942.5,356.5C 941.249,353.126 941.249,349.793 942.5,346.5 Z"/></g>
<g><path style="opacity:0.792" fill="#1c2651" d="M 1121.5,333.5 C 1123.83,333.665 1125.99,334.331 1128,335.5C 1142.03,331.34 1149.19,336.673 1149.5,351.5C 1149.59,366.95 1142.42,372.616 1128,368.5C 1127.67,371.833 1127.33,375.167 1127,378.5C 1123.72,380.091 1120.72,379.758 1118,377.5C 1117.33,363.833 1117.33,350.167 1118,336.5C 1118.98,335.186 1120.15,334.186 1121.5,333.5 Z M 1132.5,342.5 C 1140.06,344.964 1142.23,349.964 1139,357.5C 1135.02,362.861 1131.35,362.528 1128,356.5C 1126.31,350.655 1127.81,345.988 1132.5,342.5 Z"/></g>
<g><path style="opacity:0.79" fill="#1b2652" d="M 1186.5,333.5 C 1188.44,333.869 1190.27,334.536 1192,335.5C 1198.09,332.512 1203.75,333.179 1209,337.5C 1210.63,343.348 1211.47,349.348 1211.5,355.5C 1211.47,360.585 1210.8,365.418 1209.5,370C 1207.43,370.687 1205.43,370.52 1203.5,369.5C 1202.67,362.189 1202.17,354.856 1202,347.5C 1199.77,341.209 1196.77,340.875 1193,346.5C 1192.67,353.833 1192.33,361.167 1192,368.5C 1189.58,370.68 1186.92,371.013 1184,369.5C 1183.5,357.838 1183.33,346.171 1183.5,334.5C 1184.79,334.737 1185.79,334.404 1186.5,333.5 Z"/></g>
<g><path style="opacity:0.815" fill="#1d2652" d="M 1017.5,333.5 C 1023.96,333.041 1029.46,335.041 1034,339.5C 1034.5,342.146 1034.66,344.813 1034.5,347.5C 1031.81,347.664 1029.15,347.497 1026.5,347C 1023.69,341.677 1020.19,341.177 1016,345.5C 1011.99,352.523 1013.66,357.856 1021,361.5C 1023.72,361.059 1025.56,359.559 1026.5,357C 1029.15,356.503 1031.81,356.336 1034.5,356.5C 1035.54,363.268 1032.87,367.768 1026.5,370C 1013.29,371.471 1005.95,365.471 1004.5,352C 1004.85,342.85 1009.18,336.683 1017.5,333.5 Z"/></g>
<g><path style="opacity:0.758" fill="#1c2651" d="M 1047.5,333.5 C 1056.45,332.407 1062.95,335.74 1067,343.5C 1067.67,348.833 1067.67,354.167 1067,359.5C 1060.36,371.776 1051.36,373.776 1040,365.5C 1033.48,355.097 1034.31,345.263 1042.5,336C 1044.31,335.243 1045.98,334.41 1047.5,333.5 Z M 1050.5,342.5 C 1056,343.168 1059,346.335 1059.5,352C 1058.14,353.927 1057.31,356.094 1057,358.5C 1052.91,362.701 1049.41,362.201 1046.5,357C 1044.25,350.99 1045.58,346.157 1050.5,342.5 Z"/></g>
<g><path style="opacity:0.809" fill="#1c2652" d="M 1214.5,333.5 C 1216.86,333.674 1219.19,334.007 1221.5,334.5C 1222.92,340.787 1225.08,346.787 1228,352.5C 1230.1,346.577 1232.27,340.744 1234.5,335C 1240.1,331.991 1242.43,333.657 1241.5,340C 1241.42,343.998 1240.58,347.831 1239,351.5C 1235.88,359.829 1232.55,368.163 1229,376.5C 1226.52,378.917 1223.52,379.917 1220,379.5C 1213.87,379.881 1212.37,377.548 1215.5,372.5C 1219.33,372.478 1221.67,370.645 1222.5,367C 1218.98,357.431 1215.64,347.764 1212.5,338C 1212.76,336.213 1213.43,334.713 1214.5,333.5 Z"/></g>
<g><path style="opacity:0.81" fill="#1d2752" d="M 1161.5,333.5 C 1169.28,332.216 1175.11,334.883 1179,341.5C 1179.67,350.5 1179.67,359.5 1179,368.5C 1176.07,371.059 1173.07,371.059 1170,368.5C 1161.79,372.574 1155.45,370.574 1151,362.5C 1148.78,355.612 1150.95,350.779 1157.5,348C 1152.29,346.851 1150.79,344.018 1153,339.5C 1155.32,336.605 1158.16,334.605 1161.5,333.5 Z M 1164.5,342.5 C 1166.91,342.244 1168.58,343.244 1169.5,345.5C 1166.29,346.977 1162.95,347.477 1159.5,347C 1161.24,345.483 1162.91,343.983 1164.5,342.5 Z M 1168.5,355.5 C 1169.75,358.175 1168.75,360.009 1165.5,361C 1161.68,361.796 1160.35,360.462 1161.5,357C 1164.04,356.814 1166.37,356.314 1168.5,355.5 Z"/></g>
<g><path style="opacity:0.732" fill="#1e2753" d="M 731.5,333.5 C 739.276,332.216 745.11,334.883 749,341.5C 749.667,350.5 749.667,359.5 749,368.5C 746.075,371.059 743.075,371.059 740,368.5C 732.259,372.289 725.926,370.623 721,363.5C 718.705,356.312 720.872,351.145 727.5,348C 720.242,345.381 719.576,341.548 725.5,336.5C 727.604,335.481 729.604,334.481 731.5,333.5 Z M 733.5,342.5 C 736.278,342.022 738.278,343.022 739.5,345.5C 736.286,346.977 732.953,347.477 729.5,347C 731.192,345.693 732.525,344.193 733.5,342.5 Z M 738.5,355.5 C 739.747,358.175 738.747,360.009 735.5,361C 731.682,361.796 730.349,360.462 731.5,357C 734.036,356.814 736.369,356.314 738.5,355.5 Z"/></g>
</svg>
