<?xml version="1.0" encoding="UTF-8"?>
<!DOCTYPE svg PUBLIC "-//W3C//DTD SVG 1.1//EN" "http://www.w3.org/Graphics/SVG/1.1/DTD/svg11.dtd">
<svg xmlns="http://www.w3.org/2000/svg" version="1.1" width="1280px" height="473px" style="shape-rendering:geometricPrecision; text-rendering:geometricPrecision; image-rendering:optimizeQuality; fill-rule:evenodd; clip-rule:evenodd" xmlns:xlink="http://www.w3.org/1999/xlink">
<g><path style="opacity:0.955" fill="#fafcf9" d="M 84.5,110.5 C 84.4701,111.497 84.9701,112.164 86,112.5C 110.336,116.833 122.169,131.333 121.5,156C 122.049,165.573 119.882,174.406 115,182.5C 109.866,188.635 104.366,194.469 98.5,200C 95.0478,202.393 91.3811,204.226 87.5,205.5C 87.3433,206.873 87.51,208.207 88,209.5C 106.881,229.379 125.381,249.545 143.5,270C 139.52,273.309 135.52,276.643 131.5,280C 130.365,280.749 129.365,280.583 128.5,279.5C 105.843,254.208 83.1763,228.874 60.5,203.5C 67.5256,199.765 74.5256,195.931 81.5,192C 87.9771,186.69 93.9771,180.857 99.5,174.5C 108.313,160.77 107.313,147.77 96.5,135.5C 95.3112,134.571 93.9778,134.238 92.5,134.5C 91.0867,133.065 89.42,132.065 87.5,131.5C 87.5299,130.503 87.0299,129.836 86,129.5C 82.7493,128.932 79.5826,128.098 76.5,127C 61.122,126.183 45.7887,126.35 30.5,127.5C 29.1687,182.665 29.1687,237.665 30.5,292.5C 32.4839,297.484 34.1506,302.484 35.5,307.5C 40.1801,318.687 47.1801,328.187 56.5,336C 57.745,336.791 59.0783,337.291 60.5,337.5C 60.6107,338.117 60.944,338.617 61.5,339C 66.1806,340.344 70.8473,341.677 75.5,343C 115.833,343.667 156.167,343.667 196.5,343C 199.191,342.844 201.524,342.011 203.5,340.5C 206.686,340.105 209.686,339.105 212.5,337.5C 216.502,335.161 219.835,332.161 222.5,328.5C 224.173,327.657 225.34,326.324 226,324.5C 227.299,318.881 227.632,313.214 227,307.5C 226.8,305.68 225.966,304.347 224.5,303.5C 222.807,299.628 220.474,296.128 217.5,293C 212.066,291.117 207.066,288.45 202.5,285C 192.891,282.463 183.558,279.13 174.5,275C 170.298,271.133 166.465,266.967 163,262.5C 160.527,257.861 158.36,253.194 156.5,248.5C 155.842,238.29 156.842,228.29 159.5,218.5C 161.338,215.828 162.505,212.828 163,209.5C 169.578,202.632 177.411,197.965 186.5,195.5C 206.806,194.547 227.14,194.214 247.5,194.5C 247.5,199.833 247.5,205.167 247.5,210.5C 228.155,210.167 208.822,210.5 189.5,211.5C 188.757,212.182 188.091,212.849 187.5,213.5C 180.77,216.733 176.937,222.066 176,229.5C 175.333,235.167 175.333,240.833 176,246.5C 179.112,253.279 183.945,258.445 190.5,262C 208.694,266.316 224.527,274.816 238,287.5C 239.705,289.577 240.872,291.91 241.5,294.5C 242.179,297.707 243.346,300.707 245,303.5C 245.671,304.252 246.504,304.586 247.5,304.5C 248.898,343.603 229.898,362.77 190.5,362C 149.817,362.913 109.15,362.58 68.5,361C 48.2271,357.436 33.0604,346.603 23,328.5C 18.4762,320.427 15.4762,311.761 14,302.5C 13.5,238.501 13.3333,174.501 13.5,110.5C 37.1667,110.5 60.8333,110.5 84.5,110.5 Z"/></g>
<g><path style="opacity:0.995" fill="#4daf51" d="M 84.5,110.5 C 121.168,110.333 157.835,110.5 194.5,111C 223.399,118.73 240.732,137.23 246.5,166.5C 247.498,175.475 247.832,184.475 247.5,193.5C 227.831,193.333 208.164,193.5 188.5,194C 187.584,194.278 186.918,194.778 186.5,195.5C 177.411,197.965 169.578,202.632 163,209.5C 162.505,212.828 161.338,215.828 159.5,218.5C 158.027,220.583 156.86,222.916 156,225.5C 155.178,233.345 155.344,241.011 156.5,248.5C 158.36,253.194 160.527,257.861 163,262.5C 166.465,266.967 170.298,271.133 174.5,275C 183.558,279.13 192.891,282.463 202.5,285C 207.066,288.45 212.066,291.117 217.5,293C 220.474,296.128 222.807,299.628 224.5,303.5C 226.328,312.125 225.661,320.458 222.5,328.5C 219.835,332.161 216.502,335.161 212.5,337.5C 209.686,339.105 206.686,340.105 203.5,340.5C 160.518,341.64 117.518,341.806 74.5,341C 69.9665,339.518 65.2998,338.351 60.5,337.5C 59.0783,337.291 57.745,336.791 56.5,336C 47.1801,328.187 40.1801,318.687 35.5,307.5C 35.1604,303.452 34.4938,299.452 33.5,295.5C 32.5,240.171 32.1667,184.837 32.5,129.5C 47.1667,129.5 61.8333,129.5 76.5,129.5C 80.3186,129.414 83.9852,130.081 87.5,131.5C 89.42,132.065 91.0867,133.065 92.5,134.5C 102.764,141.958 106.098,151.958 102.5,164.5C 101.71,167.925 100.71,171.258 99.5,174.5C 93.9771,180.857 87.9771,186.69 81.5,192C 74.5256,195.931 67.5256,199.765 60.5,203.5C 83.1763,228.874 105.843,254.208 128.5,279.5C 129.365,280.583 130.365,280.749 131.5,280C 135.52,276.643 139.52,273.309 143.5,270C 125.381,249.545 106.881,229.379 88,209.5C 87.51,208.207 87.3433,206.873 87.5,205.5C 91.3811,204.226 95.0478,202.393 98.5,200C 104.366,194.469 109.866,188.635 115,182.5C 119.882,174.406 122.049,165.573 121.5,156C 122.169,131.333 110.336,116.833 86,112.5C 84.9701,112.164 84.4701,111.497 84.5,110.5 Z"/></g>
<g><path style="opacity:1" fill="#dbefdb" d="M 87.5,131.5 C 83.9852,130.081 80.3186,129.414 76.5,129.5C 61.3424,128.504 46.0091,128.17 30.5,128.5C 30.5,183.167 30.5,237.833 30.5,292.5C 29.1687,237.665 29.1687,182.665 30.5,127.5C 45.7887,126.35 61.122,126.183 76.5,127C 79.5826,128.098 82.7493,128.932 86,129.5C 87.0299,129.836 87.5299,130.503 87.5,131.5 Z"/></g>
<g><path style="opacity:1" fill="#89ca8a" d="M 92.5,134.5 C 93.9778,134.238 95.3112,134.571 96.5,135.5C 107.313,147.77 108.313,160.77 99.5,174.5C 100.71,171.258 101.71,167.925 102.5,164.5C 106.098,151.958 102.764,141.958 92.5,134.5 Z"/></g>
<g><path style="opacity:0.845" fill="#403f41" d="M 341.5,157.5 C 367.169,157.333 392.835,157.5 418.5,158C 452.289,164.11 465.789,183.943 459,217.5C 451.375,234.786 438.208,244.953 419.5,248C 435.025,266.861 450.192,286.028 465,305.5C 466.202,307.677 466.702,310.011 466.5,312.5C 460.756,313.954 455.09,313.787 449.5,312C 434.034,292.218 418.701,272.385 403.5,252.5C 387.848,251.501 372.181,251.167 356.5,251.5C 356.667,271.503 356.5,291.503 356,311.5C 351.677,313.715 347.177,314.048 342.5,312.5C 341.5,260.838 341.167,209.171 341.5,157.5 Z M 356.5,172.5 C 378.199,172.094 399.866,172.594 421.5,174C 445.697,183.008 451.697,198.841 439.5,221.5C 432.971,229.029 424.638,233.363 414.5,234.5C 395.178,235.5 375.845,235.833 356.5,235.5C 356.5,214.5 356.5,193.5 356.5,172.5 Z"/></g>
<g><path style="opacity:0.79" fill="#403f40" d="M 1033.5,163.5 C 1037.9,163.228 1042.24,163.561 1046.5,164.5C 1047.5,175.814 1047.83,187.147 1047.5,198.5C 1059.5,198.333 1071.5,198.5 1083.5,199C 1085.77,202.918 1086.11,207.085 1084.5,211.5C 1072.18,212.499 1059.85,212.832 1047.5,212.5C 1047.19,237.526 1047.52,262.526 1048.5,287.5C 1052.41,295.705 1058.91,300.039 1068,300.5C 1073.35,300.355 1078.35,299.022 1083,296.5C 1083.67,297.167 1084.33,297.833 1085,298.5C 1088.23,307.83 1085.07,312.997 1075.5,314C 1050.26,316.758 1035.76,305.592 1032,280.5C 1031.5,257.836 1031.33,235.169 1031.5,212.5C 1026.46,212.827 1021.46,212.494 1016.5,211.5C 1014.89,207.085 1015.23,202.918 1017.5,199C 1022.15,198.501 1026.82,198.334 1031.5,198.5C 1031.33,187.495 1031.5,176.495 1032,165.5C 1032.72,164.956 1033.22,164.289 1033.5,163.5 Z"/></g>
<g><path style="opacity:0.821" fill="#414042" d="M 1214.5,163.5 C 1219.1,163.2 1223.6,163.533 1228,164.5C 1228.5,175.828 1228.67,187.162 1228.5,198.5C 1240.5,198.333 1252.5,198.5 1264.5,199C 1265.47,203.401 1265.8,207.901 1265.5,212.5C 1253.17,212.5 1240.83,212.5 1228.5,212.5C 1228.03,237.898 1228.53,263.231 1230,288.5C 1238.71,301.431 1250.05,304.098 1264,296.5C 1264.33,296.833 1264.67,297.167 1265,297.5C 1265.67,302.167 1265.67,306.833 1265,311.5C 1247.22,318.589 1232.22,314.922 1220,300.5C 1217.12,294.446 1215.12,288.112 1214,281.5C 1213.5,258.502 1213.33,235.502 1213.5,212.5C 1208.49,212.666 1203.49,212.499 1198.5,212C 1197.17,207.667 1197.17,203.333 1198.5,199C 1203.49,198.501 1208.49,198.334 1213.5,198.5C 1213.19,186.753 1213.52,175.086 1214.5,163.5 Z"/></g>
<g><path style="opacity:0.831" fill="#444245" d="M 485.5,164.5 C 490.844,164.334 496.177,164.501 501.5,165C 502,165.5 502.5,166 503,166.5C 503.811,173.414 503.645,180.248 502.5,187C 496.509,187.499 490.509,187.666 484.5,187.5C 484.201,179.747 484.534,172.08 485.5,164.5 Z"/></g>
<g><path style="opacity:1" fill="#7fc581" d="M 76.5,129.5 C 61.8333,129.5 47.1667,129.5 32.5,129.5C 32.1667,184.837 32.5,240.171 33.5,295.5C 34.4938,299.452 35.1604,303.452 35.5,307.5C 34.1506,302.484 32.4839,297.484 30.5,292.5C 30.5,237.833 30.5,183.167 30.5,128.5C 46.0091,128.17 61.3424,128.504 76.5,129.5 Z"/></g>
<g><path style="opacity:1" fill="#a3d6a5" d="M 247.5,193.5 C 247.5,193.833 247.5,194.167 247.5,194.5C 227.14,194.214 206.806,194.547 186.5,195.5C 186.918,194.778 187.584,194.278 188.5,194C 208.164,193.5 227.831,193.333 247.5,193.5 Z"/></g>
<g><path style="opacity:0.841" fill="#414042" d="M 572.5,195.5 C 589.463,194.015 603.963,199.015 616,210.5C 620.553,216.821 623.553,223.821 625,231.5C 625.167,245 625.333,258.5 625.5,272C 625.491,285.889 624.824,299.556 623.5,313C 620.106,313.752 616.773,313.585 613.5,312.5C 612.667,290.508 612.167,268.508 612,246.5C 608.905,218.055 593.405,206.555 565.5,212C 555.224,216.443 548.224,223.943 544.5,234.5C 543.667,260.16 543.167,285.827 543,311.5C 538.362,314.09 533.696,314.09 529,311.5C 528.333,274.167 528.333,236.833 529,199.5C 533.413,198.368 537.913,198.201 542.5,199C 543.3,203.08 543.8,207.247 544,211.5C 551.609,202.617 561.109,197.283 572.5,195.5 Z"/></g>
<g><path style="opacity:0.829" fill="#414042" d="M 700.5,195.5 C 715.005,194.764 728.339,198.264 740.5,206C 744.369,209.534 747.869,213.367 751,217.5C 751.333,211.5 751.667,205.5 752,199.5C 756.079,198.371 760.245,198.204 764.5,199C 765,199.5 765.5,200 766,200.5C 766.667,231.167 766.667,261.833 766,292.5C 766.172,314.001 757.006,330.168 738.5,341C 733.483,343.784 728.15,345.784 722.5,347C 701.963,350.365 683.13,346.532 666,335.5C 665.333,330.833 665.333,326.167 666,321.5C 666.725,319.842 667.892,319.342 669.5,320C 683.83,331.258 700.163,335.258 718.5,332C 732.125,329.707 741.625,322.207 747,309.5C 750.51,300.817 751.844,291.817 751,282.5C 736.861,300.675 718.361,307.508 695.5,303C 664.133,292.774 650.633,271.274 655,238.5C 661.008,214.322 676.174,199.989 700.5,195.5 Z M 703.5,209.5 C 730.377,210.216 746.377,223.716 751.5,250C 750.862,261.567 746.195,271.233 737.5,279C 733.411,282.095 729.077,284.761 724.5,287C 701.439,294.096 683.939,287.262 672,266.5C 663.847,237.094 674.347,218.094 703.5,209.5 Z"/></g>
<g><path style="opacity:0.846" fill="#414042" d="M 843.5,195.5 C 883.19,196.196 904.856,216.196 908.5,255.5C 905.538,291.798 885.871,312.132 849.5,316.5C 818.652,313.146 799.485,296.479 792,266.5C 789.077,227.962 806.244,204.295 843.5,195.5 Z M 846.5,209.5 C 874.741,212.075 890.408,227.409 893.5,255.5C 890.822,281.842 876.488,297.175 850.5,301.5C 819.22,295.975 805.053,277.309 808,245.5C 813.267,225.4 826.1,213.4 846.5,209.5 Z"/></g>
<g><path style="opacity:0.832" fill="#414042" d="M 960.5,195.5 C 967.909,196.154 975.242,197.32 982.5,199C 988.49,201.661 994.49,204.328 1000.5,207C 1002.61,207.872 1003.95,209.372 1004.5,211.5C 1003.41,216.084 1000.74,219.084 996.5,220.5C 988.8,217.645 981.133,214.812 973.5,212C 966.101,211.152 958.767,211.485 951.5,213C 937.298,221.372 936.631,230.372 949.5,240C 962.167,244.333 974.833,248.667 987.5,253C 1000.01,257.82 1006.67,266.82 1007.5,280C 1007.65,291.975 1002.98,301.475 993.5,308.5C 989.746,310.81 985.746,312.643 981.5,314C 961.128,316.817 942.128,313.151 924.5,303C 922.643,301.818 921.643,300.151 921.5,298C 922.263,294.977 923.43,292.144 925,289.5C 925.956,288.106 927.289,287.439 929,287.5C 938.666,292.193 948.499,296.36 958.5,300C 964.859,300.831 971.193,300.664 977.5,299.5C 988.111,295.937 992.945,288.604 992,277.5C 987.383,270.935 981.216,266.435 973.5,264C 962.554,261.596 951.887,258.263 941.5,254C 922.97,241.645 920.137,226.478 933,208.5C 940.827,201.135 949.993,196.802 960.5,195.5 Z"/></g>
<g><path style="opacity:0.833" fill="#414042" d="M 1137.5,196.5 C 1151,195.693 1163.34,198.86 1174.5,206C 1182.53,213.113 1187.37,221.946 1189,232.5C 1189.67,258.833 1189.67,285.167 1189,311.5C 1185.01,313.701 1180.85,314.035 1176.5,312.5C 1175.67,307.868 1175.17,303.202 1175,298.5C 1156.36,317.101 1134.86,321.267 1110.5,311C 1097.6,302.866 1090.93,291.199 1090.5,276C 1090.9,266.463 1094.56,258.463 1101.5,252C 1107.89,247.243 1114.89,243.91 1122.5,242C 1139.8,240.659 1157.14,240.159 1174.5,240.5C 1174.53,227.713 1168.86,218.546 1157.5,213C 1139.95,209.354 1123.28,211.521 1107.5,219.5C 1103.22,217.899 1101.22,214.732 1101.5,210C 1101.56,208.564 1101.89,207.231 1102.5,206C 1113.77,200.8 1125.43,197.634 1137.5,196.5 Z M 1140.5,254.5 C 1152.2,254.23 1163.87,254.564 1175.5,255.5C 1177.44,284.046 1164.27,299.379 1136,301.5C 1125.9,301.304 1117.23,297.637 1110,290.5C 1103.6,279.47 1105.1,269.637 1114.5,261C 1116.5,260 1118.5,259 1120.5,258C 1127.28,256.679 1133.95,255.512 1140.5,254.5 Z"/></g>
<g><path style="opacity:0.854" fill="#3e3d3e" d="M 487.5,198.5 C 491.514,198.334 495.514,198.501 499.5,199C 500,199.5 500.5,200 501,200.5C 501.667,237.167 501.667,273.833 501,310.5C 497.187,313.706 492.854,314.373 488,312.5C 487.055,312.095 486.388,311.428 486,310.5C 485.333,273.833 485.333,237.167 486,200.5C 486.717,199.956 487.217,199.289 487.5,198.5 Z"/></g>
<g><path style="opacity:1" fill="#f5bcb9" d="M 247.5,210.5 C 247.5,210.833 247.5,211.167 247.5,211.5C 246.5,211.5 245.5,211.5 244.5,211.5C 227.83,211.333 211.163,211.5 194.5,212C 192.26,212.977 189.927,213.477 187.5,213.5C 188.091,212.849 188.757,212.182 189.5,211.5C 208.822,210.5 228.155,210.167 247.5,210.5 Z"/></g>
<g><path style="opacity:1" fill="#ec6863" d="M 244.5,211.5 C 244.667,240.169 244.5,268.835 244,297.5C 243.623,296.058 242.79,295.058 241.5,294.5C 240.872,291.91 239.705,289.577 238,287.5C 224.527,274.816 208.694,266.316 190.5,262C 183.945,258.445 179.112,253.279 176,246.5C 175.333,240.833 175.333,235.167 176,229.5C 176.937,222.066 180.77,216.733 187.5,213.5C 189.927,213.477 192.26,212.977 194.5,212C 211.163,211.5 227.83,211.333 244.5,211.5 Z"/></g>
<g><path style="opacity:0.356" fill="#c37c5f" d="M 244.5,211.5 C 245.5,211.5 246.5,211.5 247.5,211.5C 247.5,242.5 247.5,273.5 247.5,304.5C 246.504,304.586 245.671,304.252 245,303.5C 243.346,300.707 242.179,297.707 241.5,294.5C 242.79,295.058 243.623,296.058 244,297.5C 244.5,268.835 244.667,240.169 244.5,211.5 Z"/></g>
<g><path style="opacity:1" fill="#8aca8c" d="M 159.5,218.5 C 156.842,228.29 155.842,238.29 156.5,248.5C 155.344,241.011 155.178,233.345 156,225.5C 156.86,222.916 158.027,220.583 159.5,218.5 Z"/></g>
<g><path style="opacity:1" fill="#c1e3c2" d="M 224.5,303.5 C 225.966,304.347 226.8,305.68 227,307.5C 227.632,313.214 227.299,318.881 226,324.5C 225.34,326.324 224.173,327.657 222.5,328.5C 225.661,320.458 226.328,312.125 224.5,303.5 Z"/></g>
<g><path style="opacity:1" fill="#69bb6b" d="M 60.5,337.5 C 65.2998,338.351 69.9665,339.518 74.5,341C 117.518,341.806 160.518,341.64 203.5,340.5C 201.524,342.011 199.191,342.844 196.5,343C 156.167,343.667 115.833,343.667 75.5,343C 70.8473,341.677 66.1806,340.344 61.5,339C 60.944,338.617 60.6107,338.117 60.5,337.5 Z"/></g>
</svg>
